%TF.GenerationSoftware,KiCad,Pcbnew,7.0.6*%
%TF.CreationDate,2023-11-17T16:50:28-08:00*%
%TF.ProjectId,Final_Project_4Layer,46696e61-6c5f-4507-926f-6a6563745f34,1.0*%
%TF.SameCoordinates,Original*%
%TF.FileFunction,Copper,L1,Top*%
%TF.FilePolarity,Positive*%
%FSLAX46Y46*%
G04 Gerber Fmt 4.6, Leading zero omitted, Abs format (unit mm)*
G04 Created by KiCad (PCBNEW 7.0.6) date 2023-11-17 16:50:28*
%MOMM*%
%LPD*%
G01*
G04 APERTURE LIST*
G04 Aperture macros list*
%AMRoundRect*
0 Rectangle with rounded corners*
0 $1 Rounding radius*
0 $2 $3 $4 $5 $6 $7 $8 $9 X,Y pos of 4 corners*
0 Add a 4 corners polygon primitive as box body*
4,1,4,$2,$3,$4,$5,$6,$7,$8,$9,$2,$3,0*
0 Add four circle primitives for the rounded corners*
1,1,$1+$1,$2,$3*
1,1,$1+$1,$4,$5*
1,1,$1+$1,$6,$7*
1,1,$1+$1,$8,$9*
0 Add four rect primitives between the rounded corners*
20,1,$1+$1,$2,$3,$4,$5,0*
20,1,$1+$1,$4,$5,$6,$7,0*
20,1,$1+$1,$6,$7,$8,$9,0*
20,1,$1+$1,$8,$9,$2,$3,0*%
%AMFreePoly0*
4,1,53,0.180687,1.453641,0.352314,1.393587,0.506274,1.296847,0.634847,1.168274,0.731587,1.014314,0.791641,0.842687,0.812000,0.662000,0.791641,0.481313,0.731587,0.309686,0.634847,0.155726,0.506274,0.027153,0.352314,-0.069587,0.180687,-0.129641,0.000000,-0.150000,-0.180687,-0.129641,-0.352314,-0.069587,-0.506274,0.027153,-0.634847,0.155726,-0.731587,0.309686,-0.791641,0.481313,
-0.812000,0.662000,-0.517265,0.662000,-0.496312,0.516270,-0.435151,0.382345,-0.338737,0.271077,-0.214880,0.191479,-0.073614,0.150000,0.073614,0.150000,0.214880,0.191479,0.338737,0.271077,0.435151,0.382345,0.496312,0.516270,0.517265,0.662000,0.496312,0.807730,0.435151,0.941655,0.338737,1.052923,0.214880,1.132521,0.073614,1.174000,-0.073614,1.174000,-0.214880,1.132521,
-0.338737,1.052923,-0.435151,0.941655,-0.496312,0.807730,-0.517265,0.662000,-0.812000,0.662000,-0.791641,0.842687,-0.731587,1.014314,-0.634847,1.168274,-0.506274,1.296847,-0.352314,1.393587,-0.180687,1.453641,0.000000,1.474000,0.180687,1.453641,0.180687,1.453641,$1*%
%AMFreePoly1*
4,1,6,1.000000,0.000000,0.500000,-0.750000,-0.500000,-0.750000,-0.500000,0.750000,0.500000,0.750000,1.000000,0.000000,1.000000,0.000000,$1*%
%AMFreePoly2*
4,1,6,0.500000,-0.750000,-0.650000,-0.750000,-0.150000,0.000000,-0.650000,0.750000,0.500000,0.750000,0.500000,-0.750000,0.500000,-0.750000,$1*%
G04 Aperture macros list end*
%TA.AperFunction,ComponentPad*%
%ADD10O,1.700000X1.700000*%
%TD*%
%TA.AperFunction,ComponentPad*%
%ADD11R,1.700000X1.700000*%
%TD*%
%TA.AperFunction,SMDPad,CuDef*%
%ADD12R,0.711200X0.762000*%
%TD*%
%TA.AperFunction,SMDPad,CuDef*%
%ADD13R,0.762000X0.711200*%
%TD*%
%TA.AperFunction,SMDPad,CuDef*%
%ADD14R,5.511800X0.990600*%
%TD*%
%TA.AperFunction,SMDPad,CuDef*%
%ADD15R,3.098800X1.701800*%
%TD*%
%TA.AperFunction,ComponentPad*%
%ADD16C,1.574800*%
%TD*%
%TA.AperFunction,SMDPad,CuDef*%
%ADD17R,1.346200X0.812800*%
%TD*%
%TA.AperFunction,SMDPad,CuDef*%
%ADD18R,0.812800X1.346200*%
%TD*%
%TA.AperFunction,SMDPad,CuDef*%
%ADD19R,1.244600X0.863600*%
%TD*%
%TA.AperFunction,SMDPad,CuDef*%
%ADD20R,0.863600X1.244600*%
%TD*%
%TA.AperFunction,SMDPad,CuDef*%
%ADD21R,0.660400X2.768600*%
%TD*%
%TA.AperFunction,ComponentPad*%
%ADD22C,1.524000*%
%TD*%
%TA.AperFunction,SMDPad,CuDef*%
%ADD23R,0.300000X1.150000*%
%TD*%
%TA.AperFunction,ComponentPad*%
%ADD24O,1.000000X2.100000*%
%TD*%
%TA.AperFunction,ComponentPad*%
%ADD25O,1.000000X1.600000*%
%TD*%
%TA.AperFunction,SMDPad,CuDef*%
%ADD26RoundRect,0.075000X0.662500X0.075000X-0.662500X0.075000X-0.662500X-0.075000X0.662500X-0.075000X0*%
%TD*%
%TA.AperFunction,SMDPad,CuDef*%
%ADD27RoundRect,0.075000X0.075000X0.662500X-0.075000X0.662500X-0.075000X-0.662500X0.075000X-0.662500X0*%
%TD*%
%TA.AperFunction,SMDPad,CuDef*%
%ADD28RoundRect,0.150000X-0.512500X-0.150000X0.512500X-0.150000X0.512500X0.150000X-0.512500X0.150000X0*%
%TD*%
%TA.AperFunction,SMDPad,CuDef*%
%ADD29RoundRect,0.218750X-0.218750X-0.381250X0.218750X-0.381250X0.218750X0.381250X-0.218750X0.381250X0*%
%TD*%
%TA.AperFunction,SMDPad,CuDef*%
%ADD30R,1.498600X0.889000*%
%TD*%
%TA.AperFunction,SMDPad,CuDef*%
%ADD31R,0.889000X1.498600*%
%TD*%
%TA.AperFunction,SMDPad,CuDef*%
%ADD32R,0.889000X0.889000*%
%TD*%
%TA.AperFunction,SMDPad,CuDef*%
%ADD33RoundRect,0.150000X-0.587500X-0.150000X0.587500X-0.150000X0.587500X0.150000X-0.587500X0.150000X0*%
%TD*%
%TA.AperFunction,SMDPad,CuDef*%
%ADD34RoundRect,0.130500X0.169500X0.130500X-0.169500X0.130500X-0.169500X-0.130500X0.169500X-0.130500X0*%
%TD*%
%TA.AperFunction,SMDPad,CuDef*%
%ADD35FreePoly0,270.000000*%
%TD*%
%TA.AperFunction,SMDPad,CuDef*%
%ADD36R,1.500000X1.000000*%
%TD*%
%TA.AperFunction,SMDPad,CuDef*%
%ADD37R,0.355600X0.660400*%
%TD*%
%TA.AperFunction,ComponentPad*%
%ADD38R,1.408000X1.408000*%
%TD*%
%TA.AperFunction,ComponentPad*%
%ADD39C,1.408000*%
%TD*%
%TA.AperFunction,SMDPad,CuDef*%
%ADD40FreePoly1,270.000000*%
%TD*%
%TA.AperFunction,SMDPad,CuDef*%
%ADD41FreePoly2,270.000000*%
%TD*%
%TA.AperFunction,ComponentPad*%
%ADD42C,1.530000*%
%TD*%
%TA.AperFunction,SMDPad,CuDef*%
%ADD43R,0.812800X0.254000*%
%TD*%
%TA.AperFunction,SMDPad,CuDef*%
%ADD44R,0.254000X0.812800*%
%TD*%
%TA.AperFunction,SMDPad,CuDef*%
%ADD45R,1.244600X1.244600*%
%TD*%
%TA.AperFunction,SMDPad,CuDef*%
%ADD46R,0.990600X0.889000*%
%TD*%
%TA.AperFunction,SMDPad,CuDef*%
%ADD47R,1.560000X0.650000*%
%TD*%
%TA.AperFunction,ComponentPad*%
%ADD48C,1.803400*%
%TD*%
%TA.AperFunction,SMDPad,CuDef*%
%ADD49R,1.800000X1.000000*%
%TD*%
%TA.AperFunction,ViaPad*%
%ADD50C,0.800000*%
%TD*%
%TA.AperFunction,Conductor*%
%ADD51C,0.250000*%
%TD*%
%TA.AperFunction,Conductor*%
%ADD52C,0.200000*%
%TD*%
G04 APERTURE END LIST*
D10*
%TO.P,J5,9,9*%
%TO.N,/Card_Detect*%
X153340000Y-108000000D03*
%TO.P,J5,8,8*%
%TO.N,unconnected-(J5-Pad8)*%
X155880000Y-108000000D03*
%TO.P,J5,7,7*%
%TO.N,/MISO*%
X158420000Y-108000000D03*
%TO.P,J5,6,6*%
%TO.N,GND*%
X160960000Y-108000000D03*
%TO.P,J5,5,5*%
%TO.N,/SCK*%
X163500000Y-108000000D03*
%TO.P,J5,4,4*%
%TO.N,+3.3V*%
X166040000Y-108000000D03*
%TO.P,J5,3,3*%
%TO.N,/MOSI*%
X168580000Y-108000000D03*
%TO.P,J5,2,2*%
%TO.N,/CS_Card*%
X171120000Y-108000000D03*
D11*
%TO.P,J5,1,1*%
%TO.N,unconnected-(J5-Pad1)*%
X173660000Y-108000000D03*
%TD*%
D12*
%TO.P,D6,1,K*%
%TO.N,GND*%
X192000000Y-62365000D03*
%TO.P,D6,2,A*%
%TO.N,Net-(D6-A)*%
X192000000Y-63914400D03*
%TD*%
D13*
%TO.P,D2,1,K*%
%TO.N,Net-(D2-K)*%
X173425300Y-65400000D03*
%TO.P,D2,2,A*%
%TO.N,VBUS*%
X174974700Y-65400000D03*
%TD*%
D14*
%TO.P,J11,1,1*%
%TO.N,+6V*%
X155650001Y-99399999D03*
%TO.P,J11,2,2*%
%TO.N,GND*%
X155650001Y-97399997D03*
D15*
%TO.P,J11,3*%
%TO.N,N/C*%
X153400000Y-101799996D03*
%TO.P,J11,4*%
X153400000Y-95000000D03*
%TD*%
D16*
%TO.P,J9,1,Pin_1*%
%TO.N,PWM_Servo*%
X166300000Y-94100000D03*
%TO.P,J9,2,Pin_2*%
%TO.N,+6V*%
X166300000Y-96640000D03*
%TO.P,J9,3,Pin_3*%
%TO.N,GND*%
X166300000Y-99180000D03*
%TD*%
D11*
%TO.P,J7,1,1*%
%TO.N,+3.3V*%
X218000000Y-140720000D03*
D10*
%TO.P,J7,2,2*%
%TO.N,Net-(J10-Pad2)*%
X218000000Y-143260000D03*
%TO.P,J7,3,3*%
%TO.N,GND*%
X218000000Y-145800000D03*
%TD*%
D17*
%TO.P,R19,1*%
%TO.N,Net-(R18-Pad1)*%
X193500000Y-136200000D03*
%TO.P,R19,2*%
%TO.N,Net-(R19-Pad2)*%
X193500000Y-138003400D03*
%TD*%
D18*
%TO.P,R10,1*%
%TO.N,/V_DIV*%
X182196600Y-77000000D03*
%TO.P,R10,2*%
%TO.N,+BATT*%
X184000000Y-77000000D03*
%TD*%
D19*
%TO.P,C6,1*%
%TO.N,+3.3V*%
X173400000Y-78300000D03*
%TO.P,C6,2*%
%TO.N,GND*%
X173400000Y-80154200D03*
%TD*%
%TO.P,C11,1*%
%TO.N,+3.3V*%
X165000000Y-87100000D03*
%TO.P,C11,2*%
%TO.N,GND*%
X165000000Y-88954200D03*
%TD*%
D18*
%TO.P,R9,1*%
%TO.N,Net-(U3-STAT)*%
X175201700Y-62900000D03*
%TO.P,R9,2*%
%TO.N,Net-(D2-K)*%
X173398300Y-62900000D03*
%TD*%
D19*
%TO.P,C12,1*%
%TO.N,+3.3V*%
X167900000Y-87100000D03*
%TO.P,C12,2*%
%TO.N,GND*%
X167900000Y-88954200D03*
%TD*%
D17*
%TO.P,R20,1*%
%TO.N,Net-(R19-Pad2)*%
X190300000Y-138003400D03*
%TO.P,R20,2*%
%TO.N,GND*%
X190300000Y-136200000D03*
%TD*%
D20*
%TO.P,C20,1*%
%TO.N,Net-(C20-Pad1)*%
X226200000Y-137800000D03*
%TO.P,C20,2*%
%TO.N,GND*%
X224345800Y-137800000D03*
%TD*%
D18*
%TO.P,R22,1*%
%TO.N,/SD_MODE*%
X208300000Y-135000000D03*
%TO.P,R22,2*%
%TO.N,+3.3V*%
X206496600Y-135000000D03*
%TD*%
D19*
%TO.P,C13,1*%
%TO.N,GND*%
X206725000Y-119554200D03*
%TO.P,C13,2*%
%TO.N,Net-(U2-VDDCORE)*%
X206725000Y-117700000D03*
%TD*%
D17*
%TO.P,R13,1*%
%TO.N,+3.3V*%
X197548100Y-66007800D03*
%TO.P,R13,2*%
%TO.N,Net-(U4-EN)*%
X197548100Y-67811200D03*
%TD*%
D19*
%TO.P,C17,1*%
%TO.N,GND*%
X198000000Y-130854200D03*
%TO.P,C17,2*%
%TO.N,+3.3V*%
X198000000Y-129000000D03*
%TD*%
D21*
%TO.P,J1,1,1*%
%TO.N,/SWDIO*%
X182460000Y-128000000D03*
%TO.P,J1,2,2*%
%TO.N,/SWCLK*%
X183730000Y-128000000D03*
%TO.P,J1,3,3*%
%TO.N,unconnected-(J1-Pad3)*%
X185000000Y-128000000D03*
%TO.P,J1,4,4*%
%TO.N,unconnected-(J1-Pad4)*%
X186270000Y-128000000D03*
%TO.P,J1,5,5*%
%TO.N,unconnected-(J1-Pad5)*%
X187540000Y-128000000D03*
%TO.P,J1,6,6*%
%TO.N,+3.3V*%
X182460000Y-132039996D03*
%TO.P,J1,7,7*%
%TO.N,GND*%
X183730000Y-132039996D03*
%TO.P,J1,8,8*%
X185000000Y-132039996D03*
%TO.P,J1,9,9*%
%TO.N,unconnected-(J1-Pad10)*%
X186270000Y-132039996D03*
%TO.P,J1,10,10*%
X187540000Y-132039996D03*
%TD*%
D19*
%TO.P,C10,1*%
%TO.N,+3.3V*%
X162100000Y-87100000D03*
%TO.P,C10,2*%
%TO.N,GND*%
X162100000Y-88954200D03*
%TD*%
D17*
%TO.P,R16,1*%
%TO.N,ESP_RED*%
X191993400Y-69817800D03*
%TO.P,R16,2*%
%TO.N,Net-(D6-A)*%
X191993400Y-68014400D03*
%TD*%
%TO.P,R23,1*%
%TO.N,/AMPL_GAIN_SEL*%
X210456100Y-142744500D03*
%TO.P,R23,2*%
%TO.N,Net-(J10-Pad3)*%
X210456100Y-144547900D03*
%TD*%
D22*
%TO.P,J3,1,Pin_1*%
%TO.N,+3.3V*%
X226000000Y-105000000D03*
%TO.P,J3,2,Pin_2*%
%TO.N,/Force_Signal*%
X226000000Y-102460000D03*
%TD*%
D18*
%TO.P,R21,1*%
%TO.N,JUMBO_LED*%
X217896600Y-120900000D03*
%TO.P,R21,2*%
%TO.N,Net-(J8-Pin_1)*%
X219700000Y-120900000D03*
%TD*%
%TO.P,R14,1*%
%TO.N,RED_LED*%
X181001700Y-92700000D03*
%TO.P,R14,2*%
%TO.N,Net-(D3-A)*%
X179198300Y-92700000D03*
%TD*%
D23*
%TO.P,J6,A1,GND*%
%TO.N,GND*%
X168670000Y-67745000D03*
%TO.P,J6,A4,VBUS*%
%TO.N,VBUS*%
X167870000Y-67745000D03*
%TO.P,J6,A5,CC1*%
%TO.N,unconnected-(J6-CC1-PadA5)*%
X166570000Y-67745000D03*
%TO.P,J6,A6,D+*%
%TO.N,D+*%
X165570000Y-67745000D03*
%TO.P,J6,A7,D-*%
%TO.N,D-*%
X165070000Y-67745000D03*
%TO.P,J6,A8,SBU1*%
%TO.N,unconnected-(J6-SBU1-PadA8)*%
X164070000Y-67745000D03*
%TO.P,J6,A9,VBUS*%
%TO.N,VBUS*%
X162770000Y-67745000D03*
%TO.P,J6,A12,GND*%
%TO.N,GND*%
X161970000Y-67745000D03*
%TO.P,J6,B1,GND*%
X162270000Y-67745000D03*
%TO.P,J6,B4,VBUS*%
%TO.N,VBUS*%
X163070000Y-67745000D03*
%TO.P,J6,B5,CC2*%
%TO.N,unconnected-(J6-CC1-PadA5)*%
X163570000Y-67745000D03*
%TO.P,J6,B6,D+*%
%TO.N,D+*%
X164570000Y-67745000D03*
%TO.P,J6,B7,D-*%
%TO.N,D-*%
X166070000Y-67745000D03*
%TO.P,J6,B8,SBU2*%
%TO.N,unconnected-(J6-SBU1-PadA8)*%
X167070000Y-67745000D03*
%TO.P,J6,B9,VBUS*%
%TO.N,VBUS*%
X167570000Y-67745000D03*
%TO.P,J6,B12,GND*%
%TO.N,GND*%
X168370000Y-67745000D03*
D24*
%TO.P,J6,S1,SHIELD*%
X169640000Y-67180000D03*
D25*
X169640000Y-63000000D03*
D24*
X161000000Y-67180000D03*
D25*
X161000000Y-63000000D03*
%TD*%
D26*
%TO.P,U2,1,PA00*%
%TO.N,Net-(U2-PA00)*%
X195662500Y-95750000D03*
%TO.P,U2,2,PA01*%
%TO.N,Net-(U2-PA01)*%
X195662500Y-95250000D03*
%TO.P,U2,3,PA02*%
%TO.N,unconnected-(U2-PA02-Pad3)*%
X195662500Y-94750000D03*
%TO.P,U2,4,PA03*%
%TO.N,/AREF*%
X195662500Y-94250000D03*
%TO.P,U2,5,PB04*%
%TO.N,unconnected-(U2-PB04-Pad5)*%
X195662500Y-93750000D03*
%TO.P,U2,6,PB05*%
%TO.N,unconnected-(U2-PB05-Pad6)*%
X195662500Y-93250000D03*
%TO.P,U2,7,GNDANA*%
%TO.N,GND*%
X195662500Y-92750000D03*
%TO.P,U2,8,VDDANA*%
%TO.N,+3.3V*%
X195662500Y-92250000D03*
%TO.P,U2,9,PB06*%
%TO.N,unconnected-(U2-PB06-Pad9)*%
X195662500Y-91750000D03*
%TO.P,U2,10,PB07*%
%TO.N,unconnected-(U2-PB07-Pad10)*%
X195662500Y-91250000D03*
%TO.P,U2,11,PB08*%
%TO.N,PWM_Servo*%
X195662500Y-90750000D03*
%TO.P,U2,12,PB09*%
%TO.N,JUMBO_LED*%
X195662500Y-90250000D03*
%TO.P,U2,13,PA04*%
%TO.N,/Button_Signal*%
X195662500Y-89750000D03*
%TO.P,U2,14,PA05*%
%TO.N,unconnected-(U2-PA05-Pad14)*%
X195662500Y-89250000D03*
%TO.P,U2,15,PA06*%
%TO.N,/Force_Signal*%
X195662500Y-88750000D03*
%TO.P,U2,16,PA07*%
%TO.N,unconnected-(U2-PA07-Pad16)*%
X195662500Y-88250000D03*
D27*
%TO.P,U2,17,PA08*%
%TO.N,unconnected-(U2-PA08-Pad17)*%
X193750000Y-86337500D03*
%TO.P,U2,18,PA09*%
%TO.N,unconnected-(U2-PA09-Pad18)*%
X193250000Y-86337500D03*
%TO.P,U2,19,PA10*%
%TO.N,unconnected-(U2-PA10-Pad19)*%
X192750000Y-86337500D03*
%TO.P,U2,20,PA11*%
%TO.N,unconnected-(U2-PA11-Pad20)*%
X192250000Y-86337500D03*
%TO.P,U2,21,VDDIOB*%
%TO.N,+3.3V*%
X191750000Y-86337500D03*
%TO.P,U2,22,GND*%
%TO.N,GND*%
X191250000Y-86337500D03*
%TO.P,U2,23,PB10*%
%TO.N,unconnected-(U2-PB10-Pad23)*%
X190750000Y-86337500D03*
%TO.P,U2,24,PB11*%
%TO.N,unconnected-(U2-PB11-Pad24)*%
X190250000Y-86337500D03*
%TO.P,U2,25,PB12*%
%TO.N,unconnected-(U2-PB12-Pad25)*%
X189750000Y-86337500D03*
%TO.P,U2,26,PB13*%
%TO.N,unconnected-(U2-PB13-Pad26)*%
X189250000Y-86337500D03*
%TO.P,U2,27,PB14*%
%TO.N,unconnected-(U2-PB14-Pad27)*%
X188750000Y-86337500D03*
%TO.P,U2,28,PB15*%
%TO.N,unconnected-(U2-PB15-Pad28)*%
X188250000Y-86337500D03*
%TO.P,U2,29,PA12*%
%TO.N,unconnected-(U2-PA12-Pad29)*%
X187750000Y-86337500D03*
%TO.P,U2,30,PA13*%
%TO.N,unconnected-(U2-PA13-Pad30)*%
X187250000Y-86337500D03*
%TO.P,U2,31,PA14*%
%TO.N,/ESP_Busy*%
X186750000Y-86337500D03*
%TO.P,U2,32,PA15*%
%TO.N,unconnected-(U2-PA15-Pad32)*%
X186250000Y-86337500D03*
D26*
%TO.P,U2,33,GND*%
%TO.N,GND*%
X184337500Y-88250000D03*
%TO.P,U2,34,VDDIO*%
%TO.N,+3.3V*%
X184337500Y-88750000D03*
%TO.P,U2,35,PA16*%
%TO.N,/Card_Detect*%
X184337500Y-89250000D03*
%TO.P,U2,36,PA17*%
%TO.N,/SCK*%
X184337500Y-89750000D03*
%TO.P,U2,37,PA18*%
%TO.N,/CS_Wifi*%
X184337500Y-90250000D03*
%TO.P,U2,38,PA19*%
%TO.N,/CS_Card*%
X184337500Y-90750000D03*
%TO.P,U2,39,PB16*%
%TO.N,/I2S_BCLK*%
X184337500Y-91250000D03*
%TO.P,U2,40,PB17*%
%TO.N,unconnected-(U2-PB17-Pad40)*%
X184337500Y-91750000D03*
%TO.P,U2,41,PA20*%
%TO.N,/I2S_LRCLK*%
X184337500Y-92250000D03*
%TO.P,U2,42,PA21*%
%TO.N,/I2S_DIN*%
X184337500Y-92750000D03*
%TO.P,U2,43,PA22*%
%TO.N,/I2S_DOUT*%
X184337500Y-93250000D03*
%TO.P,U2,44,PA23*%
%TO.N,RED_LED*%
X184337500Y-93750000D03*
%TO.P,U2,45,PA24*%
%TO.N,D-*%
X184337500Y-94250000D03*
%TO.P,U2,46,PA25*%
%TO.N,D+*%
X184337500Y-94750000D03*
%TO.P,U2,47,GND*%
%TO.N,GND*%
X184337500Y-95250000D03*
%TO.P,U2,48,VDDIO*%
%TO.N,+3.3V*%
X184337500Y-95750000D03*
D27*
%TO.P,U2,49,PB22*%
%TO.N,/MISO*%
X186250000Y-97662500D03*
%TO.P,U2,50,PB23*%
%TO.N,/MOSI*%
X186750000Y-97662500D03*
%TO.P,U2,51,PA27*%
%TO.N,unconnected-(U2-PA27-Pad51)*%
X187250000Y-97662500D03*
%TO.P,U2,52,~{RESET}*%
%TO.N,RESET*%
X187750000Y-97662500D03*
%TO.P,U2,53,VDDCORE*%
%TO.N,Net-(U2-VDDCORE)*%
X188250000Y-97662500D03*
%TO.P,U2,54,GND*%
%TO.N,GND*%
X188750000Y-97662500D03*
%TO.P,U2,55,VSW*%
%TO.N,Net-(U2-VSW)*%
X189250000Y-97662500D03*
%TO.P,U2,56,VDDIO*%
%TO.N,+3.3V*%
X189750000Y-97662500D03*
%TO.P,U2,57,PA30*%
%TO.N,/SWCLK*%
X190250000Y-97662500D03*
%TO.P,U2,58,PA31*%
%TO.N,/SWDIO*%
X190750000Y-97662500D03*
%TO.P,U2,59,PB30*%
%TO.N,unconnected-(U2-PB30-Pad59)*%
X191250000Y-97662500D03*
%TO.P,U2,60,PB31*%
%TO.N,unconnected-(U2-PB31-Pad60)*%
X191750000Y-97662500D03*
%TO.P,U2,61,PB00*%
%TO.N,unconnected-(U2-PB00-Pad61)*%
X192250000Y-97662500D03*
%TO.P,U2,62,PB01*%
%TO.N,/V_DIV*%
X192750000Y-97662500D03*
%TO.P,U2,63,PB02*%
%TO.N,unconnected-(U2-PB02-Pad63)*%
X193250000Y-97662500D03*
%TO.P,U2,64,PB03*%
%TO.N,D8_NEOPIX*%
X193750000Y-97662500D03*
%TD*%
D28*
%TO.P,U1,1,VIN*%
%TO.N,Net-(D1-K)*%
X165100000Y-78300000D03*
%TO.P,U1,2,GND*%
%TO.N,GND*%
X165100000Y-79250000D03*
%TO.P,U1,3,EN*%
%TO.N,Net-(U1-EN)*%
X165100000Y-80200000D03*
%TO.P,U1,4,NC*%
%TO.N,unconnected-(U1-NC-Pad4)*%
X167375000Y-80200000D03*
%TO.P,U1,5,VOUT*%
%TO.N,+3.3V*%
X167375000Y-78300000D03*
%TD*%
D29*
%TO.P,FB2,1*%
%TO.N,/VO+*%
X218237500Y-135800000D03*
%TO.P,FB2,2*%
%TO.N,Net-(C20-Pad1)*%
X220362500Y-135800000D03*
%TD*%
D18*
%TO.P,R11,1*%
%TO.N,GND*%
X184000000Y-79800000D03*
%TO.P,R11,2*%
%TO.N,/V_DIV*%
X182196600Y-79800000D03*
%TD*%
D20*
%TO.P,C9,1*%
%TO.N,GND*%
X214800000Y-95000000D03*
%TO.P,C9,2*%
%TO.N,Net-(U2-PA01)*%
X212945800Y-95000000D03*
%TD*%
D30*
%TO.P,U4,1,GND*%
%TO.N,GND*%
X201499400Y-68680480D03*
%TO.P,U4,2,VDD*%
%TO.N,+3.3V*%
X201499400Y-69950480D03*
%TO.P,U4,3,EN*%
%TO.N,Net-(U4-EN)*%
X201499400Y-71220480D03*
%TO.P,U4,4,SENSOR_VP*%
%TO.N,unconnected-(U4-SENSOR_VP-Pad4)*%
X201499400Y-72490480D03*
%TO.P,U4,5,SENSOR_VN*%
%TO.N,unconnected-(U4-SENSOR_VN-Pad5)*%
X201499400Y-73760480D03*
%TO.P,U4,6,IO34*%
%TO.N,unconnected-(U4-IO34-Pad6)*%
X201499400Y-75030480D03*
%TO.P,U4,7,IO35*%
%TO.N,unconnected-(U4-IO35-Pad7)*%
X201499400Y-76300480D03*
%TO.P,U4,8,IO32*%
%TO.N,unconnected-(U4-IO32-Pad8)*%
X201499400Y-77570480D03*
%TO.P,U4,9,IO33*%
%TO.N,/ESP_Busy*%
X201499400Y-78840480D03*
%TO.P,U4,10,IO25*%
%TO.N,ESP_GREEN*%
X201499400Y-80110480D03*
%TO.P,U4,11,IO26*%
%TO.N,ESP_RED*%
X201499400Y-81380480D03*
%TO.P,U4,12,IO27*%
%TO.N,ESP_BLUE*%
X201499400Y-82650480D03*
%TO.P,U4,13,IO14*%
%TO.N,/MOSI*%
X201499400Y-83920480D03*
%TO.P,U4,14,IO12*%
%TO.N,unconnected-(U4-IO12-Pad14)*%
X201499400Y-85190480D03*
D31*
%TO.P,U4,15,GND*%
%TO.N,unconnected-(U4-GND-Pad15)*%
X203264700Y-86440160D03*
%TO.P,U4,16,IO13*%
%TO.N,unconnected-(U4-IO13-Pad16)*%
X204534700Y-86440160D03*
%TO.P,U4,17,SHD/SD2*%
%TO.N,unconnected-(U4-SHD{slash}SD2-Pad17)*%
X205804700Y-86440160D03*
%TO.P,U4,18,SWP/SD3*%
%TO.N,unconnected-(U4-SWP{slash}SD3-Pad18)*%
X207074700Y-86440160D03*
%TO.P,U4,19,SCS/CMD*%
%TO.N,unconnected-(U4-SCS{slash}CMD-Pad19)*%
X208344700Y-86440160D03*
%TO.P,U4,20,SCK/CLK*%
%TO.N,unconnected-(U4-SCK{slash}CLK-Pad20)*%
X209614700Y-86440160D03*
%TO.P,U4,21,SDO/SD0*%
%TO.N,unconnected-(U4-SDO{slash}SD0-Pad21)*%
X210884700Y-86440160D03*
%TO.P,U4,22,SDI/SD1*%
%TO.N,unconnected-(U4-SDI{slash}SD1-Pad22)*%
X212154700Y-86440160D03*
%TO.P,U4,23,IO15*%
%TO.N,unconnected-(U4-IO15-Pad23)*%
X213424700Y-86440160D03*
%TO.P,U4,24,IO2*%
%TO.N,unconnected-(U4-IO2-Pad24)*%
X214694700Y-86440160D03*
%TO.P,U4,25,IO0*%
%TO.N,unconnected-(U4-IO0-Pad25)*%
X215964700Y-86440160D03*
%TO.P,U4,26,IO4*%
%TO.N,unconnected-(U4-IO4-Pad26)*%
X217234700Y-86440160D03*
D30*
%TO.P,U4,27,IO16*%
%TO.N,unconnected-(U4-IO16-Pad27)*%
X219000000Y-85190480D03*
%TO.P,U4,28,IO17*%
%TO.N,unconnected-(U4-IO17-Pad28)*%
X219000000Y-83920480D03*
%TO.P,U4,29,IO5*%
%TO.N,/CS_Wifi*%
X219000000Y-82650480D03*
%TO.P,U4,30,IO18*%
%TO.N,/SCK*%
X219000000Y-81380480D03*
%TO.P,U4,31,IO19*%
%TO.N,unconnected-(U4-IO19-Pad31)*%
X219000000Y-80110480D03*
%TO.P,U4,32,NC*%
%TO.N,unconnected-(U4-NC-Pad32)*%
X219000000Y-78840480D03*
%TO.P,U4,33,IO21*%
%TO.N,unconnected-(U4-IO21-Pad33)*%
X219000000Y-77570480D03*
%TO.P,U4,34,RXD0/IO3*%
%TO.N,unconnected-(U4-RXD0{slash}IO3-Pad34)*%
X219000000Y-76300480D03*
%TO.P,U4,35,TXD0/IO1*%
%TO.N,unconnected-(U4-TXD0{slash}IO1-Pad35)*%
X219000000Y-75030480D03*
%TO.P,U4,36,IO22*%
%TO.N,unconnected-(U4-IO22-Pad36)*%
X219000000Y-73760480D03*
%TO.P,U4,37,IO23*%
%TO.N,/MISO_ESP*%
X219000000Y-72490480D03*
%TO.P,U4,38,GND*%
%TO.N,unconnected-(U4-GND-Pad38)*%
X219000000Y-71220480D03*
%TO.P,U4,39,GND*%
%TO.N,unconnected-(U4-GND-Pad39)*%
X219000000Y-69950480D03*
%TO.P,U4,40*%
%TO.N,N/C*%
X219000000Y-68680480D03*
D32*
%TO.P,U4,41*%
X208748560Y-76399540D03*
%TO.P,U4,42*%
X208748560Y-75000000D03*
%TO.P,U4,43*%
X207349020Y-75000000D03*
%TO.P,U4,44*%
X207349020Y-76399540D03*
%TO.P,U4,45*%
X207349020Y-77799080D03*
%TO.P,U4,46*%
X208748560Y-77799080D03*
%TO.P,U4,47*%
X210148100Y-77799080D03*
%TO.P,U4,48*%
X210148100Y-76399540D03*
%TO.P,U4,49*%
X210148100Y-75000000D03*
%TD*%
D11*
%TO.P,J10,1,1*%
%TO.N,/AMPL_GAIN_SEL*%
X214000000Y-140775000D03*
D10*
%TO.P,J10,2,2*%
%TO.N,Net-(J10-Pad2)*%
X214000000Y-143315000D03*
%TO.P,J10,3,3*%
%TO.N,Net-(J10-Pad3)*%
X214000000Y-145855000D03*
%TD*%
D14*
%TO.P,J4,1,1*%
%TO.N,+BATT*%
X155650001Y-88000000D03*
%TO.P,J4,2,2*%
%TO.N,GND*%
X155650001Y-85999998D03*
D15*
%TO.P,J4,3*%
%TO.N,N/C*%
X153400000Y-90399997D03*
%TO.P,J4,4*%
X153400000Y-83600001D03*
%TD*%
D20*
%TO.P,C3,1*%
%TO.N,Net-(D1-K)*%
X152145800Y-79600000D03*
%TO.P,C3,2*%
%TO.N,GND*%
X154000000Y-79600000D03*
%TD*%
D33*
%TO.P,Q1,1,G*%
%TO.N,VBUS*%
X152125000Y-74150000D03*
%TO.P,Q1,2,S*%
%TO.N,Net-(D1-K)*%
X152125000Y-76050000D03*
%TO.P,Q1,3,D*%
%TO.N,+BATT*%
X154000000Y-75100000D03*
%TD*%
D29*
%TO.P,L1,1,1*%
%TO.N,Net-(U2-VDDCORE)*%
X206700000Y-114300000D03*
%TO.P,L1,2,2*%
%TO.N,Net-(U2-VSW)*%
X208825000Y-114300000D03*
%TD*%
D19*
%TO.P,C5,1*%
%TO.N,+3.3V*%
X171075000Y-78300000D03*
%TO.P,C5,2*%
%TO.N,GND*%
X171075000Y-80154200D03*
%TD*%
D18*
%TO.P,R6,1*%
%TO.N,RESET*%
X184000000Y-113500000D03*
%TO.P,R6,2*%
%TO.N,+3.3V*%
X185803400Y-113500000D03*
%TD*%
D19*
%TO.P,C21,1*%
%TO.N,+3.3V*%
X202800000Y-128972900D03*
%TO.P,C21,2*%
%TO.N,GND*%
X202800000Y-130827100D03*
%TD*%
D18*
%TO.P,R7,1*%
%TO.N,/I2S_DOUT*%
X188198300Y-121000000D03*
%TO.P,R7,2*%
%TO.N,Net-(MK1-DATA)*%
X190001700Y-121000000D03*
%TD*%
D17*
%TO.P,R12,1*%
%TO.N,GND*%
X185500000Y-62700000D03*
%TO.P,R12,2*%
%TO.N,Net-(U3-PROG)*%
X185500000Y-64503400D03*
%TD*%
D34*
%TO.P,MK1,1,WS*%
%TO.N,/I2S_LRCLK*%
X190900000Y-118174000D03*
%TO.P,MK1,2,SEL*%
%TO.N,Net-(MK1-SEL)*%
X190900000Y-117352000D03*
D35*
%TO.P,MK1,3,GND*%
%TO.N,GND*%
X189338000Y-116100000D03*
D34*
%TO.P,MK1,4,BCLK*%
%TO.N,/I2S_BCLK*%
X189100000Y-117352000D03*
%TO.P,MK1,5,VDD*%
%TO.N,+3.3V*%
X189100000Y-118174000D03*
%TO.P,MK1,6,DATA*%
%TO.N,Net-(MK1-DATA)*%
X190000000Y-118174000D03*
%TD*%
D36*
%TO.P,D4,1,DOUT*%
%TO.N,unconnected-(D4-DOUT-Pad1)*%
X211300000Y-109700000D03*
%TO.P,D4,2,GND*%
%TO.N,GND*%
X211300000Y-106500000D03*
%TO.P,D4,3,VDD*%
%TO.N,+3.3V*%
X206400000Y-106500000D03*
%TO.P,D4,4,DIN*%
%TO.N,D8_NEOPIX*%
X206400000Y-109700000D03*
%TD*%
D37*
%TO.P,D1,1,K*%
%TO.N,Net-(D1-K)*%
X161200000Y-74938400D03*
%TO.P,D1,2,A*%
%TO.N,VBUS*%
X161200000Y-72500000D03*
%TD*%
D12*
%TO.P,D7,1,K*%
%TO.N,GND*%
X195000000Y-62439700D03*
%TO.P,D7,2,A*%
%TO.N,Net-(D7-A)*%
X195000000Y-63989100D03*
%TD*%
D18*
%TO.P,R8,1*%
%TO.N,+3.3V*%
X199901700Y-103101700D03*
%TO.P,R8,2*%
%TO.N,/SWCLK*%
X198098300Y-103101700D03*
%TD*%
D17*
%TO.P,R4,1*%
%TO.N,GND*%
X193400000Y-114000000D03*
%TO.P,R4,2*%
%TO.N,Net-(MK1-SEL)*%
X193400000Y-115803400D03*
%TD*%
D29*
%TO.P,FB1,1*%
%TO.N,/VO-*%
X218237500Y-133300000D03*
%TO.P,FB1,2*%
%TO.N,Net-(C18-Pad1)*%
X220362500Y-133300000D03*
%TD*%
D38*
%TO.P,S1,1*%
%TO.N,unconnected-(S1-Pad1)*%
X191000000Y-145500000D03*
D39*
%TO.P,S1,2*%
%TO.N,unconnected-(S1-Pad2)*%
X193500000Y-145500000D03*
%TO.P,S1,3*%
%TO.N,unconnected-(S1-Pad3)*%
X196000000Y-145500000D03*
%TO.P,S1,4*%
%TO.N,unconnected-(S1-Pad4)*%
X201000000Y-145500000D03*
%TO.P,S1,5*%
%TO.N,unconnected-(S1-Pad5)*%
X203500000Y-145500000D03*
%TO.P,S1,6*%
%TO.N,+3.3V*%
X203500000Y-143000000D03*
%TO.P,S1,7*%
%TO.N,Net-(R18-Pad1)*%
X201000000Y-143000000D03*
%TO.P,S1,8*%
%TO.N,/SD_MODE*%
X196000000Y-143000000D03*
%TO.P,S1,9*%
%TO.N,Net-(R19-Pad2)*%
X193500000Y-143000000D03*
%TO.P,S1,10*%
%TO.N,GND*%
X191000000Y-143000000D03*
%TD*%
D20*
%TO.P,C7,1*%
%TO.N,/AREF*%
X217000000Y-92000000D03*
%TO.P,C7,2*%
%TO.N,GND*%
X218854200Y-92000000D03*
%TD*%
D40*
%TO.P,JP1,1,A*%
%TO.N,+3.3V*%
X213000000Y-90600000D03*
D41*
%TO.P,JP1,2,B*%
%TO.N,/AREF*%
X213000000Y-92050000D03*
%TD*%
D42*
%TO.P,TP1,TP,1*%
%TO.N,/SWDIO*%
X183000000Y-122000000D03*
%TD*%
D17*
%TO.P,R15,1*%
%TO.N,ESP_BLUE*%
X188986800Y-69817800D03*
%TO.P,R15,2*%
%TO.N,Net-(D5-A)*%
X188986800Y-68014400D03*
%TD*%
D22*
%TO.P,J8,1,Pin_1*%
%TO.N,Net-(J8-Pin_1)*%
X226000000Y-121000000D03*
%TO.P,J8,2,Pin_2*%
%TO.N,GND*%
X226000000Y-118460000D03*
%TD*%
%TO.P,J2,1,Pin_1*%
%TO.N,+3.3V*%
X226000000Y-113000000D03*
%TO.P,J2,2,Pin_2*%
%TO.N,/Button_Signal*%
X226000000Y-110460000D03*
%TD*%
D18*
%TO.P,R1,1*%
%TO.N,GND*%
X168103400Y-73300000D03*
%TO.P,R1,2*%
%TO.N,VBUS*%
X166300000Y-73300000D03*
%TD*%
D42*
%TO.P,TP2,TP,1*%
%TO.N,/SWCLK*%
X179000000Y-122000000D03*
%TD*%
D18*
%TO.P,R2,1*%
%TO.N,GND*%
X218096600Y-110460000D03*
%TO.P,R2,2*%
%TO.N,/Button_Signal*%
X219900000Y-110460000D03*
%TD*%
D43*
%TO.P,U6,1,DIN*%
%TO.N,/I2S_DIN*%
X210752200Y-126349999D03*
%TO.P,U6,2,GAIN_SLOT*%
%TO.N,/AMPL_GAIN_SEL*%
X210752200Y-126850000D03*
%TO.P,U6,3,GND*%
%TO.N,GND*%
X210752200Y-127350000D03*
%TO.P,U6,4,\u002ASD_MODE*%
%TO.N,/SD_MODE*%
X210752200Y-127850001D03*
D44*
%TO.P,U6,5,N.C.*%
%TO.N,unconnected-(U6-N.C.-Pad5)*%
X211449999Y-128547800D03*
%TO.P,U6,6,N.C.*%
%TO.N,unconnected-(U6-N.C.-Pad6)*%
X211950000Y-128547800D03*
%TO.P,U6,7,VDD*%
%TO.N,+3.3V*%
X212450000Y-128547800D03*
%TO.P,U6,8,VDD*%
X212950001Y-128547800D03*
D43*
%TO.P,U6,9,OUTP*%
%TO.N,/VO-*%
X213647800Y-127850001D03*
%TO.P,U6,10,OUTN*%
%TO.N,/VO+*%
X213647800Y-127350000D03*
%TO.P,U6,11,GND*%
%TO.N,GND*%
X213647800Y-126850000D03*
%TO.P,U6,12,N.C.*%
%TO.N,unconnected-(U6-N.C.-Pad12)*%
X213647800Y-126349999D03*
D44*
%TO.P,U6,13,N.C.*%
%TO.N,unconnected-(U6-N.C.-Pad13)*%
X212950001Y-125652200D03*
%TO.P,U6,14,LRCLK*%
%TO.N,/I2S_LRCLK*%
X212450000Y-125652200D03*
%TO.P,U6,15,GND*%
%TO.N,GND*%
X211950000Y-125652200D03*
%TO.P,U6,16,BCLK*%
%TO.N,/I2S_BCLK*%
X211449999Y-125652200D03*
D45*
%TO.P,U6,17,EPAD*%
%TO.N,unconnected-(U6-EPAD-Pad17)*%
X212200000Y-127100000D03*
%TD*%
D19*
%TO.P,C14,1*%
%TO.N,GND*%
X208925000Y-119554200D03*
%TO.P,C14,2*%
%TO.N,Net-(U2-VDDCORE)*%
X208925000Y-117700000D03*
%TD*%
D20*
%TO.P,C8,1*%
%TO.N,GND*%
X214772900Y-97500000D03*
%TO.P,C8,2*%
%TO.N,Net-(U2-PA00)*%
X212918700Y-97500000D03*
%TD*%
D17*
%TO.P,R18,1*%
%TO.N,Net-(R18-Pad1)*%
X201000000Y-138003400D03*
%TO.P,R18,2*%
%TO.N,+3.3V*%
X201000000Y-136200000D03*
%TD*%
D20*
%TO.P,C15,1*%
%TO.N,GND*%
X175090900Y-73378500D03*
%TO.P,C15,2*%
%TO.N,+BATT*%
X176945100Y-73378500D03*
%TD*%
%TO.P,C4,1*%
%TO.N,RESET*%
X183972900Y-116700000D03*
%TO.P,C4,2*%
%TO.N,GND*%
X185827100Y-116700000D03*
%TD*%
D46*
%TO.P,SW1,1,1*%
%TO.N,GND*%
X179899998Y-112800000D03*
%TO.P,SW1,2,2*%
%TO.N,RESET*%
X181500000Y-112800000D03*
%TO.P,SW1,3,3*%
%TO.N,GND*%
X179899998Y-116899996D03*
%TO.P,SW1,4,4*%
%TO.N,RESET*%
X181500000Y-116899996D03*
%TD*%
D19*
%TO.P,C1,1*%
%TO.N,+3.3V*%
X196572900Y-115772900D03*
%TO.P,C1,2*%
%TO.N,GND*%
X196572900Y-117627100D03*
%TD*%
D18*
%TO.P,R3,1*%
%TO.N,GND*%
X218272800Y-102434900D03*
%TO.P,R3,2*%
%TO.N,/Force_Signal*%
X220076200Y-102434900D03*
%TD*%
D17*
%TO.P,R17,1*%
%TO.N,ESP_GREEN*%
X195000000Y-69817800D03*
%TO.P,R17,2*%
%TO.N,Net-(D7-A)*%
X195000000Y-68014400D03*
%TD*%
D19*
%TO.P,C16,1*%
%TO.N,GND*%
X195500000Y-130854200D03*
%TO.P,C16,2*%
%TO.N,+3.3V*%
X195500000Y-129000000D03*
%TD*%
D12*
%TO.P,D5,1,K*%
%TO.N,GND*%
X189000000Y-62365000D03*
%TO.P,D5,2,A*%
%TO.N,Net-(D5-A)*%
X189000000Y-63914400D03*
%TD*%
D28*
%TO.P,U3,1,STAT*%
%TO.N,Net-(U3-STAT)*%
X179562500Y-64450000D03*
%TO.P,U3,2,V_{SS}*%
%TO.N,GND*%
X179562500Y-65400000D03*
%TO.P,U3,3,V_{BAT}*%
%TO.N,+BATT*%
X179562500Y-66350000D03*
%TO.P,U3,4,V_{DD}*%
%TO.N,VBUS*%
X181837500Y-66350000D03*
%TO.P,U3,5,PROG*%
%TO.N,Net-(U3-PROG)*%
X181837500Y-64450000D03*
%TD*%
D19*
%TO.P,C2,1*%
%TO.N,+3.3V*%
X199400000Y-115800000D03*
%TO.P,C2,2*%
%TO.N,GND*%
X199400000Y-117654200D03*
%TD*%
D17*
%TO.P,R5,1*%
%TO.N,Net-(U1-EN)*%
X161275000Y-80103400D03*
%TO.P,R5,2*%
%TO.N,Net-(D1-K)*%
X161275000Y-78300000D03*
%TD*%
D47*
%TO.P,U5,1*%
%TO.N,/CS_Wifi*%
X226000000Y-96900000D03*
%TO.P,U5,2*%
%TO.N,/MISO_ESP*%
X226000000Y-95950000D03*
%TO.P,U5,3,GND*%
%TO.N,GND*%
X226000000Y-95000000D03*
%TO.P,U5,4*%
%TO.N,/MISO*%
X223300000Y-95000000D03*
%TO.P,U5,5,VCC*%
%TO.N,+3.3V*%
X223300000Y-96900000D03*
%TD*%
D19*
%TO.P,C23,1*%
%TO.N,+6V*%
X160500000Y-99427100D03*
%TO.P,C23,2*%
%TO.N,GND*%
X160500000Y-97572900D03*
%TD*%
%TO.P,C22,1*%
%TO.N,+3.3V*%
X200400000Y-129000000D03*
%TO.P,C22,2*%
%TO.N,GND*%
X200400000Y-130854200D03*
%TD*%
D48*
%TO.P,J12,1,1*%
%TO.N,Net-(C20-Pad1)*%
X226000000Y-132540000D03*
%TO.P,J12,2,2*%
%TO.N,Net-(C18-Pad1)*%
X226000000Y-130000000D03*
%TD*%
D19*
%TO.P,C19,1*%
%TO.N,+3.3V*%
X205300000Y-128972900D03*
%TO.P,C19,2*%
%TO.N,GND*%
X205300000Y-130827100D03*
%TD*%
D20*
%TO.P,C18,1*%
%TO.N,Net-(C18-Pad1)*%
X226000000Y-124800000D03*
%TO.P,C18,2*%
%TO.N,GND*%
X224145800Y-124800000D03*
%TD*%
D49*
%TO.P,Y1,1,1*%
%TO.N,Net-(U2-PA01)*%
X210000000Y-95000000D03*
%TO.P,Y1,2,2*%
%TO.N,Net-(U2-PA00)*%
X210000000Y-97500000D03*
%TD*%
D13*
%TO.P,D3,1,K*%
%TO.N,GND*%
X174750600Y-92800000D03*
%TO.P,D3,2,A*%
%TO.N,Net-(D3-A)*%
X176300000Y-92800000D03*
%TD*%
D50*
%TO.N,+3.3V*%
X189100000Y-119400000D03*
X175100000Y-78300000D03*
X182400000Y-134300000D03*
X197500000Y-64700000D03*
X192700000Y-90600000D03*
X201000000Y-115800000D03*
X201000000Y-135000000D03*
X181700000Y-88300000D03*
X213000000Y-130100000D03*
X181800000Y-96000000D03*
X185899500Y-115100000D03*
X221600000Y-96900000D03*
X205200000Y-135000000D03*
X204800000Y-106500000D03*
X192100000Y-84400000D03*
X199900000Y-70000000D03*
X162100000Y-85700000D03*
X215100000Y-90600000D03*
X196600000Y-114300000D03*
X190800000Y-95924500D03*
X201200000Y-103100000D03*
X168800000Y-78300000D03*
X195500000Y-127700000D03*
%TO.N,GND*%
X197187701Y-92987701D03*
X208575500Y-128600000D03*
X182600000Y-87600000D03*
X189300000Y-114100000D03*
X189400000Y-95924500D03*
X159700000Y-69200000D03*
X171100000Y-81400000D03*
X169400000Y-73300000D03*
X215200000Y-126400000D03*
X159500000Y-86000000D03*
X169500000Y-69500000D03*
X185500000Y-61500000D03*
X178000000Y-65400000D03*
X173000000Y-92800000D03*
X216100000Y-97500000D03*
X216900000Y-110400000D03*
X155300000Y-79600000D03*
X220300000Y-92000000D03*
X190300000Y-134900000D03*
X192000000Y-61200000D03*
X210900000Y-119600000D03*
X226000000Y-93500000D03*
X185000000Y-134400000D03*
X190900000Y-84400000D03*
X223000000Y-137800000D03*
X179900000Y-118300000D03*
X216100000Y-95000000D03*
X195000000Y-61300000D03*
X213000000Y-106500000D03*
X196600000Y-119100000D03*
X220500000Y-145800000D03*
X195000000Y-114000000D03*
X162100000Y-90300000D03*
X160500000Y-96200000D03*
X217000000Y-102400000D03*
X185500000Y-79800000D03*
X163700000Y-79300000D03*
X180700000Y-95449500D03*
X173600000Y-73400000D03*
X189000000Y-61200000D03*
X211487701Y-124112299D03*
X222700000Y-124800000D03*
X185899500Y-118300000D03*
X195500000Y-132100000D03*
X199900000Y-68700000D03*
%TO.N,Net-(D1-K)*%
X157000000Y-77600000D03*
X157000000Y-75000000D03*
X159600000Y-78000000D03*
X159600000Y-75700000D03*
%TO.N,RESET*%
X185900000Y-111700000D03*
X187700000Y-99100000D03*
%TO.N,Net-(U2-VDDCORE)*%
X189000000Y-112500000D03*
X188500000Y-99900000D03*
%TO.N,+BATT*%
X177000000Y-66800000D03*
X177000000Y-72000000D03*
%TO.N,D8_NEOPIX*%
X203000000Y-108700000D03*
X203000000Y-98900000D03*
%TO.N,/VO-*%
X215400000Y-128200000D03*
X215400000Y-131900000D03*
%TO.N,/VO+*%
X216600000Y-128200000D03*
X216600000Y-135000000D03*
%TO.N,/SWDIO*%
X190700000Y-105800000D03*
X183900000Y-105800000D03*
X183000000Y-118800000D03*
X190700000Y-99150000D03*
%TO.N,/SWCLK*%
X198100000Y-124000000D03*
X183700000Y-124500000D03*
X181500000Y-124500000D03*
X189975500Y-100000000D03*
X189975500Y-103600000D03*
X198100000Y-105000000D03*
%TO.N,/Button_Signal*%
X207600000Y-104000000D03*
X206700000Y-92100000D03*
%TO.N,/Force_Signal*%
X208700000Y-103400000D03*
X208100000Y-91100000D03*
%TO.N,/CS_Card*%
X175800000Y-105000000D03*
X175800000Y-90800000D03*
%TO.N,/MOSI*%
X186800000Y-104200000D03*
X194900000Y-84000000D03*
X193900000Y-95400000D03*
X186924500Y-99993982D03*
%TO.N,/SCK*%
X186500000Y-82400000D03*
X222300000Y-88400000D03*
X197900000Y-88200000D03*
X185900000Y-89700000D03*
X174900000Y-103300000D03*
X222300000Y-81700000D03*
X197100000Y-82400000D03*
X174900000Y-89974500D03*
%TO.N,/MISO*%
X186200000Y-102500000D03*
X186200000Y-99100000D03*
%TO.N,/Card_Detect*%
X173900000Y-101700000D03*
X173900000Y-89300000D03*
%TO.N,D+*%
X170500000Y-94200000D03*
X164600000Y-72300000D03*
X164600000Y-82900000D03*
X170500000Y-83900000D03*
%TO.N,D-*%
X166206773Y-71445529D03*
X171500000Y-93900000D03*
X171500000Y-83500000D03*
X166300000Y-81800000D03*
%TO.N,unconnected-(J6-SBU1-PadA8)*%
X166800000Y-70200000D03*
X163870500Y-70200000D03*
%TO.N,PWM_Servo*%
X198600000Y-100500000D03*
X197800000Y-91700000D03*
%TO.N,/AMPL_GAIN_SEL*%
X209300000Y-127300000D03*
X210500000Y-141100000D03*
%TO.N,Net-(U2-VSW)*%
X189251000Y-99100000D03*
X189800000Y-111600000D03*
%TO.N,/I2S_LRCLK*%
X182884749Y-92260151D03*
X192600000Y-117300000D03*
X183100000Y-104924500D03*
X193200000Y-106300000D03*
%TO.N,/I2S_BCLK*%
X187500000Y-116400000D03*
X176613329Y-91474500D03*
X189000000Y-122636987D03*
X187500000Y-109800000D03*
X176700000Y-108200000D03*
%TO.N,/I2S_DOUT*%
X185400000Y-120100000D03*
X186000000Y-95300000D03*
%TO.N,/V_DIV*%
X178600000Y-80500000D03*
X192000000Y-101600000D03*
X192800000Y-99100000D03*
X179300000Y-101600000D03*
%TO.N,ESP_BLUE*%
X197400000Y-80100000D03*
X195100000Y-74000000D03*
%TO.N,ESP_RED*%
X196700000Y-72500000D03*
X198500000Y-80100000D03*
%TO.N,ESP_GREEN*%
X198500000Y-71800000D03*
X199600000Y-80100000D03*
%TO.N,JUMBO_LED*%
X201500000Y-120800000D03*
X199500000Y-92700000D03*
%TO.N,/SD_MODE*%
X205400000Y-140100000D03*
X197000000Y-140100000D03*
%TO.N,/ESP_Busy*%
X187900000Y-84400000D03*
X188800000Y-79500000D03*
%TO.N,/CS_Wifi*%
X186767811Y-90195892D03*
X228900000Y-84100000D03*
X197200000Y-81200000D03*
X199100000Y-87700000D03*
X221200000Y-87700000D03*
X187400000Y-81600000D03*
X221200000Y-83700000D03*
X228900000Y-96300000D03*
%TO.N,/I2S_DIN*%
X193900000Y-125300000D03*
X192300000Y-93300000D03*
%TO.N,/MISO_ESP*%
X227900000Y-74800000D03*
X227900000Y-95400000D03*
%TD*%
D51*
%TO.N,+3.3V*%
X196572900Y-115772900D02*
X196572900Y-114327100D01*
X182150000Y-88750000D02*
X181700000Y-88300000D01*
X206496600Y-135000000D02*
X205200000Y-135000000D01*
X201000000Y-136200000D02*
X201000000Y-135000000D01*
X201499400Y-69950480D02*
X199949520Y-69950480D01*
X167375000Y-78300000D02*
X168800000Y-78300000D01*
X199949520Y-69950480D02*
X199900000Y-70000000D01*
X173400000Y-78300000D02*
X175100000Y-78300000D01*
X195500000Y-129000000D02*
X198000000Y-129000000D01*
X194350000Y-92250000D02*
X192700000Y-90600000D01*
X184337500Y-88750000D02*
X182150000Y-88750000D01*
X199901700Y-103101700D02*
X201198300Y-103101700D01*
X197548100Y-64748100D02*
X197500000Y-64700000D01*
X200400000Y-129000000D02*
X202772900Y-129000000D01*
X165000000Y-87100000D02*
X167900000Y-87100000D01*
X212950001Y-130050001D02*
X213000000Y-130100000D01*
X182460000Y-134240000D02*
X182400000Y-134300000D01*
X195500000Y-129000000D02*
X195500000Y-127700000D01*
X189100000Y-118174000D02*
X189100000Y-119400000D01*
X182050000Y-95750000D02*
X181800000Y-96000000D01*
X162100000Y-87100000D02*
X165000000Y-87100000D01*
X198000000Y-129000000D02*
X200400000Y-129000000D01*
X162100000Y-87100000D02*
X162100000Y-85700000D01*
X199400000Y-115800000D02*
X201000000Y-115800000D01*
X182460000Y-132039996D02*
X182460000Y-134240000D01*
X185803400Y-113500000D02*
X185803400Y-115003900D01*
X185803400Y-115003900D02*
X185899500Y-115100000D01*
X189750000Y-96859315D02*
X189750000Y-97662500D01*
X223300000Y-96900000D02*
X221600000Y-96900000D01*
X196572900Y-114327100D02*
X196600000Y-114300000D01*
X191750000Y-86337500D02*
X191750000Y-84750000D01*
X202772900Y-129000000D02*
X202800000Y-128972900D01*
X184337500Y-95750000D02*
X182050000Y-95750000D01*
X190684815Y-95924500D02*
X189750000Y-96859315D01*
X206400000Y-106500000D02*
X204800000Y-106500000D01*
X191750000Y-84750000D02*
X192100000Y-84400000D01*
X195662500Y-92250000D02*
X194350000Y-92250000D01*
X190800000Y-95924500D02*
X190684815Y-95924500D01*
X212450000Y-128547800D02*
X212950001Y-128547800D01*
X171075000Y-78300000D02*
X173400000Y-78300000D01*
X212950001Y-128547800D02*
X212950001Y-130050001D01*
X197548100Y-66007800D02*
X197548100Y-64748100D01*
X213000000Y-90600000D02*
X215100000Y-90600000D01*
X202800000Y-128972900D02*
X205300000Y-128972900D01*
X201198300Y-103101700D02*
X201200000Y-103100000D01*
%TO.N,GND*%
X184337500Y-88250000D02*
X183250000Y-88250000D01*
X224345800Y-137800000D02*
X223000000Y-137800000D01*
X195000000Y-62439700D02*
X195000000Y-61300000D01*
X154000000Y-79600000D02*
X155300000Y-79600000D01*
X214750000Y-126850000D02*
X215200000Y-126400000D01*
X179899998Y-116899996D02*
X179899998Y-118299998D01*
X195662500Y-92750000D02*
X196950000Y-92750000D01*
X161565000Y-67745000D02*
X161000000Y-67180000D01*
X179899998Y-118299998D02*
X179900000Y-118300000D01*
X160327097Y-97399997D02*
X160500000Y-97572900D01*
X196572900Y-117627100D02*
X199372900Y-117627100D01*
X168670000Y-68670000D02*
X169500000Y-69500000D01*
X196572900Y-117627100D02*
X196572900Y-119072900D01*
X159499998Y-85999998D02*
X159500000Y-86000000D01*
X216960000Y-110460000D02*
X216900000Y-110400000D01*
X209025305Y-128600000D02*
X208575500Y-128600000D01*
X208925000Y-119554200D02*
X210854200Y-119554200D01*
X226000000Y-95000000D02*
X226000000Y-93500000D01*
X175090900Y-73378500D02*
X173621500Y-73378500D01*
X155650001Y-97399997D02*
X160327097Y-97399997D01*
X184000000Y-79800000D02*
X185500000Y-79800000D01*
X200400000Y-130854200D02*
X202772900Y-130854200D01*
X224145800Y-124800000D02*
X222700000Y-124800000D01*
X210025000Y-127420800D02*
X210025000Y-127600305D01*
X210854200Y-119554200D02*
X210900000Y-119600000D01*
X217034900Y-102434900D02*
X217000000Y-102400000D01*
X183730000Y-132039996D02*
X185000000Y-132039996D01*
X183250000Y-88250000D02*
X182600000Y-87600000D01*
X171075000Y-80154200D02*
X171075000Y-81375000D01*
X191250000Y-86337500D02*
X191250000Y-84750000D01*
X196572900Y-119072900D02*
X196600000Y-119100000D01*
X195500000Y-130854200D02*
X198000000Y-130854200D01*
X202772900Y-130854200D02*
X202800000Y-130827100D01*
X190300000Y-136200000D02*
X190300000Y-134900000D01*
X193400000Y-114000000D02*
X195000000Y-114000000D01*
X196950000Y-92750000D02*
X197187701Y-92987701D01*
X160500000Y-97572900D02*
X160500000Y-96200000D01*
X161000000Y-67180000D02*
X161000000Y-67900000D01*
X171075000Y-81375000D02*
X171100000Y-81400000D01*
X195500000Y-130854200D02*
X195500000Y-132100000D01*
X191250000Y-84750000D02*
X190900000Y-84400000D01*
X179899998Y-112800000D02*
X179899998Y-116899996D01*
X165100000Y-79250000D02*
X163750000Y-79250000D01*
X218096600Y-110460000D02*
X216960000Y-110460000D01*
X180899500Y-95250000D02*
X180700000Y-95449500D01*
X185500000Y-62700000D02*
X185500000Y-61500000D01*
X213647800Y-126850000D02*
X214750000Y-126850000D01*
X185827100Y-116700000D02*
X185827100Y-118227600D01*
X174750600Y-92800000D02*
X173000000Y-92800000D01*
X211950000Y-125652200D02*
X211950000Y-124574598D01*
X162100000Y-88954200D02*
X165000000Y-88954200D01*
X198000000Y-130854200D02*
X200400000Y-130854200D01*
X211300000Y-106500000D02*
X213000000Y-106500000D01*
X179562500Y-65400000D02*
X178000000Y-65400000D01*
X161970000Y-67745000D02*
X161565000Y-67745000D01*
X185827100Y-118227600D02*
X185899500Y-118300000D01*
X199372900Y-117627100D02*
X199400000Y-117654200D01*
X189338000Y-114138000D02*
X189300000Y-114100000D01*
X189338000Y-116100000D02*
X189338000Y-114138000D01*
X188750000Y-96574500D02*
X188750000Y-97662500D01*
X211950000Y-124574598D02*
X211487701Y-124112299D01*
X202800000Y-130827100D02*
X205300000Y-130827100D01*
X185000000Y-132039996D02*
X185000000Y-134400000D01*
X155650001Y-85999998D02*
X159499998Y-85999998D01*
X214772900Y-97500000D02*
X216100000Y-97500000D01*
X162100000Y-88954200D02*
X162100000Y-90300000D01*
X189400000Y-95924500D02*
X188750000Y-96574500D01*
X214800000Y-95000000D02*
X216100000Y-95000000D01*
X210752200Y-127350000D02*
X210095800Y-127350000D01*
X189000000Y-62365000D02*
X189000000Y-61200000D01*
X201499400Y-68680480D02*
X199919520Y-68680480D01*
X206725000Y-119554200D02*
X208925000Y-119554200D01*
X163750000Y-79250000D02*
X163700000Y-79300000D01*
X199919520Y-68680480D02*
X199900000Y-68700000D01*
X210095800Y-127350000D02*
X210025000Y-127420800D01*
X184337500Y-95250000D02*
X180899500Y-95250000D01*
X161000000Y-67900000D02*
X159700000Y-69200000D01*
X218854200Y-92000000D02*
X220300000Y-92000000D01*
X192000000Y-62365000D02*
X192000000Y-61200000D01*
X210025000Y-127600305D02*
X209025305Y-128600000D01*
X218000000Y-145800000D02*
X220500000Y-145800000D01*
X171075000Y-80154200D02*
X173400000Y-80154200D01*
X165000000Y-88954200D02*
X167900000Y-88954200D01*
X218272800Y-102434900D02*
X217034900Y-102434900D01*
X173621500Y-73378500D02*
X173600000Y-73400000D01*
X168103400Y-73300000D02*
X169400000Y-73300000D01*
X168670000Y-67745000D02*
X168670000Y-68670000D01*
%TO.N,Net-(D1-K)*%
X152125000Y-76050000D02*
X152145800Y-76070800D01*
X161200000Y-75500000D02*
X159800000Y-75500000D01*
X157061600Y-74938400D02*
X161200000Y-74938400D01*
X159900000Y-78300000D02*
X159600000Y-78000000D01*
X152145800Y-76070800D02*
X152145800Y-77600000D01*
X159800000Y-75500000D02*
X159600000Y-75700000D01*
X152145800Y-77600000D02*
X152145800Y-79600000D01*
X161275000Y-78300000D02*
X159900000Y-78300000D01*
X161275000Y-78300000D02*
X165100000Y-78300000D01*
X152145800Y-77600000D02*
X157000000Y-77600000D01*
X161200000Y-74938400D02*
X161200000Y-75500000D01*
X157000000Y-75000000D02*
X157061600Y-74938400D01*
%TO.N,RESET*%
X187750000Y-99050000D02*
X187700000Y-99100000D01*
X183972900Y-113527100D02*
X184000000Y-113500000D01*
X183200000Y-113500000D02*
X182500000Y-112800000D01*
X183972900Y-116700000D02*
X183972900Y-113527100D01*
X184000000Y-112576900D02*
X184000000Y-113500000D01*
X184000000Y-113500000D02*
X183200000Y-113500000D01*
X185900000Y-111700000D02*
X184876900Y-111700000D01*
X184876900Y-111700000D02*
X184000000Y-112576900D01*
X187750000Y-97662500D02*
X187750000Y-99050000D01*
X183000000Y-116700000D02*
X183972900Y-116700000D01*
X181500000Y-116899996D02*
X182800004Y-116899996D01*
X182800004Y-116899996D02*
X183000000Y-116700000D01*
X182500000Y-112800000D02*
X181500000Y-112800000D01*
%TO.N,/AREF*%
X195662500Y-94250000D02*
X196950000Y-94250000D01*
X197700000Y-93500000D02*
X212800000Y-93500000D01*
X213000000Y-92050000D02*
X213050000Y-92000000D01*
X213000000Y-93300000D02*
X213000000Y-92050000D01*
X196950000Y-94250000D02*
X197700000Y-93500000D01*
X213050000Y-92000000D02*
X217000000Y-92000000D01*
X212800000Y-93500000D02*
X213000000Y-93300000D01*
%TO.N,Net-(U2-PA00)*%
X204850000Y-95750000D02*
X206600000Y-97500000D01*
X210000000Y-97500000D02*
X212918700Y-97500000D01*
X195662500Y-95750000D02*
X204850000Y-95750000D01*
X206600000Y-97500000D02*
X210000000Y-97500000D01*
%TO.N,Net-(U2-PA01)*%
X206800000Y-95000000D02*
X210000000Y-95000000D01*
X210000000Y-95000000D02*
X212945800Y-95000000D01*
X206550000Y-95250000D02*
X206800000Y-95000000D01*
X195662500Y-95250000D02*
X206550000Y-95250000D01*
%TO.N,Net-(U2-VDDCORE)*%
X206725000Y-114325000D02*
X206700000Y-114300000D01*
X189000000Y-112500000D02*
X205800000Y-112500000D01*
X205800000Y-112500000D02*
X206700000Y-113400000D01*
X206725000Y-117700000D02*
X208925000Y-117700000D01*
X206700000Y-113400000D02*
X206700000Y-114300000D01*
X206725000Y-117700000D02*
X206725000Y-114325000D01*
X188250000Y-97662500D02*
X188250000Y-98624695D01*
X188500000Y-98874695D02*
X188500000Y-99900000D01*
X188250000Y-98624695D02*
X188500000Y-98874695D01*
%TO.N,+BATT*%
X181301600Y-73378500D02*
X184000000Y-76076900D01*
X158600000Y-76800000D02*
X158600000Y-80600000D01*
X158600000Y-80600000D02*
X160500000Y-82500000D01*
X179512500Y-66400000D02*
X178200000Y-66400000D01*
X177000000Y-73323600D02*
X176945100Y-73378500D01*
X176945100Y-73378500D02*
X181301600Y-73378500D01*
X176945100Y-73378500D02*
X176945100Y-75654900D01*
X175800000Y-76800000D02*
X158600000Y-76800000D01*
X184000000Y-76076900D02*
X184000000Y-77000000D01*
X156100000Y-76300000D02*
X158100000Y-76300000D01*
X177400000Y-66400000D02*
X177000000Y-66800000D01*
X177000000Y-72000000D02*
X177000000Y-73323600D01*
X160500000Y-87000000D02*
X159500000Y-88000000D01*
X179562500Y-66350000D02*
X179512500Y-66400000D01*
X154900000Y-75100000D02*
X156100000Y-76300000D01*
X178200000Y-66400000D02*
X177400000Y-66400000D01*
X154000000Y-75100000D02*
X154900000Y-75100000D01*
X176945100Y-75654900D02*
X175800000Y-76800000D01*
X158100000Y-76300000D02*
X158600000Y-76800000D01*
X159500000Y-88000000D02*
X155650001Y-88000000D01*
X160500000Y-82500000D02*
X160500000Y-87000000D01*
%TO.N,Net-(C18-Pad1)*%
X226000000Y-130000000D02*
X226000000Y-124800000D01*
X224600000Y-130000000D02*
X226000000Y-130000000D01*
X221300000Y-133300000D02*
X224600000Y-130000000D01*
X220362500Y-133300000D02*
X221300000Y-133300000D01*
%TO.N,VBUS*%
X163070000Y-67745000D02*
X163070000Y-66963764D01*
X162600000Y-72500000D02*
X163400000Y-73300000D01*
X152125000Y-73375000D02*
X153000000Y-72500000D01*
X161200000Y-72500000D02*
X162600000Y-72500000D01*
X166800000Y-64600000D02*
X167556800Y-65356800D01*
X153000000Y-72500000D02*
X161200000Y-72500000D01*
X167570000Y-71130000D02*
X167570000Y-70100000D01*
X163700000Y-64600000D02*
X166800000Y-64600000D01*
X174974700Y-67374700D02*
X175500000Y-67900000D01*
X174974700Y-67374700D02*
X172049400Y-70300000D01*
X166776900Y-71900000D02*
X166800000Y-71900000D01*
X167556800Y-66950564D02*
X167570000Y-66963764D01*
X172049400Y-70300000D02*
X167770000Y-70300000D01*
X167770000Y-70300000D02*
X167570000Y-70100000D01*
X181300000Y-67900000D02*
X181837500Y-67362500D01*
X163083200Y-66950564D02*
X163083200Y-65216800D01*
X175500000Y-67900000D02*
X181300000Y-67900000D01*
X163070000Y-66963764D02*
X163083200Y-66950564D01*
X163400000Y-73300000D02*
X166300000Y-73300000D01*
X174974700Y-65400000D02*
X174974700Y-67374700D01*
X166300000Y-72376900D02*
X166776900Y-71900000D01*
X166300000Y-73300000D02*
X166300000Y-72376900D01*
X167570000Y-70100000D02*
X167570000Y-67745000D01*
X163083200Y-65216800D02*
X163700000Y-64600000D01*
X167556800Y-65356800D02*
X167556800Y-66950564D01*
X181837500Y-67362500D02*
X181837500Y-66350000D01*
X152125000Y-74150000D02*
X152125000Y-73375000D01*
X166800000Y-71900000D02*
X167570000Y-71130000D01*
X167570000Y-66963764D02*
X167570000Y-67745000D01*
%TO.N,Net-(D2-K)*%
X173398300Y-65373000D02*
X173425300Y-65400000D01*
X173398300Y-62900000D02*
X173398300Y-65373000D01*
%TO.N,Net-(D3-A)*%
X176300000Y-92800000D02*
X179098300Y-92800000D01*
X179098300Y-92800000D02*
X179198300Y-92700000D01*
%TO.N,D8_NEOPIX*%
X201762500Y-97662500D02*
X203000000Y-98900000D01*
X193750000Y-97662500D02*
X201762500Y-97662500D01*
X203000000Y-108700000D02*
X204000000Y-109700000D01*
X204000000Y-109700000D02*
X206400000Y-109700000D01*
%TO.N,Net-(D5-A)*%
X189000000Y-63914400D02*
X189000000Y-68001200D01*
X189000000Y-68001200D02*
X188986800Y-68014400D01*
%TO.N,Net-(D6-A)*%
X192000000Y-63914400D02*
X192000000Y-68007800D01*
X192000000Y-68007800D02*
X191993400Y-68014400D01*
%TO.N,Net-(D7-A)*%
X195000000Y-63989100D02*
X195000000Y-68014400D01*
D52*
%TO.N,/VO-*%
X215400000Y-131900000D02*
X216800000Y-133300000D01*
X216800000Y-133300000D02*
X218237500Y-133300000D01*
X215050001Y-127850001D02*
X215400000Y-128200000D01*
X213647800Y-127850001D02*
X215050001Y-127850001D01*
%TO.N,/VO+*%
X213647800Y-127350000D02*
X215750000Y-127350000D01*
X215750000Y-127350000D02*
X216600000Y-128200000D01*
X216600000Y-135000000D02*
X217400000Y-135800000D01*
X217400000Y-135800000D02*
X218237500Y-135800000D01*
D51*
%TO.N,/SWDIO*%
X182460000Y-128000000D02*
X182460000Y-122540000D01*
X190750000Y-99100000D02*
X190750000Y-97662500D01*
X190700000Y-99150000D02*
X190750000Y-99100000D01*
X183900000Y-105800000D02*
X190700000Y-105800000D01*
X182460000Y-122540000D02*
X183000000Y-122000000D01*
X183000000Y-122000000D02*
X183000000Y-118800000D01*
%TO.N,/SWCLK*%
X190250000Y-97662500D02*
X190250000Y-98574695D01*
X195900000Y-104100000D02*
X196898300Y-103101700D01*
X183730000Y-124530000D02*
X183730000Y-128000000D01*
X196898300Y-103101700D02*
X198098300Y-103101700D01*
X179000000Y-122000000D02*
X181500000Y-124500000D01*
X189975500Y-103600000D02*
X190475500Y-104100000D01*
X190475500Y-104100000D02*
X195900000Y-104100000D01*
X183700000Y-124500000D02*
X197600000Y-124500000D01*
X197600000Y-124500000D02*
X198100000Y-124000000D01*
X189975500Y-98849195D02*
X189975500Y-100000000D01*
X198100000Y-103103400D02*
X198098300Y-103101700D01*
X183700000Y-124500000D02*
X183730000Y-124530000D01*
X198100000Y-105000000D02*
X198100000Y-103103400D01*
X190250000Y-98574695D02*
X189975500Y-98849195D01*
%TO.N,unconnected-(J1-Pad10)*%
X186270000Y-132039996D02*
X187540000Y-132039996D01*
%TO.N,/Button_Signal*%
X195662500Y-89750000D02*
X197788299Y-89750000D01*
X219900000Y-110460000D02*
X226000000Y-110460000D01*
X197788299Y-89750000D02*
X200138299Y-92100000D01*
X200138299Y-92100000D02*
X206700000Y-92100000D01*
X218300000Y-104600000D02*
X219900000Y-106200000D01*
X208200000Y-104600000D02*
X218300000Y-104600000D01*
X219900000Y-106200000D02*
X219900000Y-110460000D01*
X207600000Y-104000000D02*
X208200000Y-104600000D01*
%TO.N,/Force_Signal*%
X209300000Y-103900000D02*
X219534200Y-103900000D01*
X225974900Y-102434900D02*
X226000000Y-102460000D01*
X206600000Y-89800000D02*
X207900000Y-91100000D01*
X208700000Y-103400000D02*
X208800000Y-103400000D01*
X219534200Y-103900000D02*
X220076200Y-103358000D01*
X220076200Y-102434900D02*
X225974900Y-102434900D01*
X220076200Y-103358000D02*
X220076200Y-102434900D01*
X195662500Y-88750000D02*
X197424695Y-88750000D01*
X198474695Y-89800000D02*
X206600000Y-89800000D01*
X207900000Y-91100000D02*
X208100000Y-91100000D01*
X197424695Y-88750000D02*
X198474695Y-89800000D01*
X208800000Y-103400000D02*
X209300000Y-103900000D01*
%TO.N,/CS_Card*%
X172900000Y-105000000D02*
X175800000Y-105000000D01*
X175850000Y-90750000D02*
X184337500Y-90750000D01*
X171120000Y-106780000D02*
X171200000Y-106700000D01*
X175800000Y-90800000D02*
X175850000Y-90750000D01*
X171200000Y-106700000D02*
X172900000Y-105000000D01*
X171120000Y-108000000D02*
X171120000Y-106780000D01*
%TO.N,/MOSI*%
X171100000Y-104200000D02*
X172200000Y-104200000D01*
X186750000Y-96859315D02*
X188409315Y-95200000D01*
X193700000Y-95200000D02*
X193900000Y-95400000D01*
X186924500Y-99993982D02*
X186924500Y-98650000D01*
X194900000Y-84000000D02*
X194979520Y-83920480D01*
X194979520Y-83920480D02*
X201499400Y-83920480D01*
X168580000Y-106720000D02*
X168700000Y-106600000D01*
X186750000Y-97662500D02*
X186750000Y-96859315D01*
X188409315Y-95200000D02*
X193700000Y-95200000D01*
X172200000Y-104200000D02*
X186800000Y-104200000D01*
X168700000Y-106600000D02*
X171100000Y-104200000D01*
X168580000Y-108000000D02*
X168580000Y-106720000D01*
X186750000Y-98475500D02*
X186750000Y-97662500D01*
X186924500Y-98650000D02*
X186750000Y-98475500D01*
%TO.N,/SCK*%
X221980480Y-81380480D02*
X222300000Y-81700000D01*
X198800000Y-89100000D02*
X197900000Y-88200000D01*
X219000000Y-81380480D02*
X221980480Y-81380480D01*
X175124500Y-89750000D02*
X184337500Y-89750000D01*
X211000000Y-89100000D02*
X198800000Y-89100000D01*
X166700000Y-103300000D02*
X174900000Y-103300000D01*
X197100000Y-82400000D02*
X186500000Y-82400000D01*
X163500000Y-106500000D02*
X164000000Y-106000000D01*
X221600000Y-89100000D02*
X211000000Y-89100000D01*
X174900000Y-89974500D02*
X175124500Y-89750000D01*
X222300000Y-88400000D02*
X221600000Y-89100000D01*
X185900000Y-89700000D02*
X185850000Y-89750000D01*
X164000000Y-106000000D02*
X166700000Y-103300000D01*
X185850000Y-89750000D02*
X184337500Y-89750000D01*
X163500000Y-108000000D02*
X163500000Y-106500000D01*
%TO.N,/MISO*%
X186200000Y-97712500D02*
X186250000Y-97662500D01*
X186200000Y-99100000D02*
X186200000Y-97712500D01*
X158420000Y-106780000D02*
X158500000Y-106700000D01*
X221000000Y-95000000D02*
X223300000Y-95000000D01*
X158500000Y-106700000D02*
X162600000Y-102600000D01*
X162600000Y-102600000D02*
X162600000Y-102500000D01*
X196200000Y-102500000D02*
X197000000Y-101700000D01*
X158420000Y-108000000D02*
X158420000Y-106780000D01*
X162600000Y-102500000D02*
X186200000Y-102500000D01*
X214300000Y-101700000D02*
X221000000Y-95000000D01*
X186200000Y-102500000D02*
X196200000Y-102500000D01*
X197000000Y-101700000D02*
X214300000Y-101700000D01*
%TO.N,/Card_Detect*%
X153500000Y-106500000D02*
X154700000Y-105300000D01*
X153340000Y-108000000D02*
X153340000Y-106660000D01*
X158900000Y-105300000D02*
X162400000Y-101800000D01*
X153340000Y-106660000D02*
X153500000Y-106500000D01*
X173800000Y-101800000D02*
X173900000Y-101700000D01*
X162400000Y-101800000D02*
X173800000Y-101800000D01*
X155500000Y-105300000D02*
X158900000Y-105300000D01*
X173900000Y-89300000D02*
X173950000Y-89250000D01*
X154700000Y-105300000D02*
X155500000Y-105300000D01*
X173950000Y-89250000D02*
X184337500Y-89250000D01*
%TO.N,unconnected-(J6-CC1-PadA5)*%
X163570000Y-67745000D02*
X163570000Y-65630000D01*
X163570000Y-65630000D02*
X164100000Y-65100000D01*
X164100000Y-65100000D02*
X166400000Y-65100000D01*
X166400000Y-65100000D02*
X166570000Y-65270000D01*
X166570000Y-65270000D02*
X166570000Y-67745000D01*
D52*
%TO.N,D+*%
X165570000Y-66870000D02*
X165570000Y-67745000D01*
X164570000Y-66920000D02*
X164890000Y-66600000D01*
X164570000Y-67745000D02*
X164570000Y-66920000D01*
X170500000Y-83900000D02*
X169900000Y-83300000D01*
X164600000Y-72300000D02*
X164570000Y-72270000D01*
X169900000Y-83300000D02*
X165000000Y-83300000D01*
X171050000Y-94750000D02*
X170500000Y-94200000D01*
X164890000Y-66600000D02*
X165300000Y-66600000D01*
X164570000Y-72270000D02*
X164570000Y-67745000D01*
X165300000Y-66600000D02*
X165570000Y-66870000D01*
X165000000Y-83300000D02*
X164600000Y-82900000D01*
X171050000Y-94750000D02*
X184337500Y-94750000D01*
%TO.N,D-*%
X165070000Y-68570000D02*
X165070000Y-67745000D01*
X182825402Y-94250000D02*
X171850000Y-94250000D01*
X166070000Y-68630000D02*
X165700000Y-69000000D01*
X184337500Y-94250000D02*
X182825402Y-94250000D01*
X171850000Y-94250000D02*
X171500000Y-93900000D01*
X165500000Y-69000000D02*
X165070000Y-68570000D01*
X166070000Y-67745000D02*
X166070000Y-68630000D01*
X167000000Y-82500000D02*
X166300000Y-81800000D01*
X165700000Y-69000000D02*
X165500000Y-69000000D01*
X166070000Y-71308756D02*
X166070000Y-67745000D01*
X166206773Y-71445529D02*
X166070000Y-71308756D01*
X171500000Y-83500000D02*
X170500000Y-82500000D01*
X170500000Y-82500000D02*
X167000000Y-82500000D01*
D51*
%TO.N,unconnected-(J6-SBU1-PadA8)*%
X167070000Y-69930000D02*
X167070000Y-67745000D01*
X163600000Y-69090000D02*
X164070000Y-68620000D01*
X166800000Y-70200000D02*
X167070000Y-69930000D01*
X164070000Y-68620000D02*
X164070000Y-67745000D01*
X163870500Y-70200000D02*
X163600000Y-69929500D01*
X163600000Y-69929500D02*
X163600000Y-69090000D01*
%TO.N,Net-(J10-Pad2)*%
X217945000Y-143315000D02*
X218000000Y-143260000D01*
X214000000Y-143315000D02*
X217945000Y-143315000D01*
%TO.N,Net-(J8-Pin_1)*%
X225900000Y-120900000D02*
X226000000Y-121000000D01*
X219700000Y-120900000D02*
X225900000Y-120900000D01*
%TO.N,PWM_Servo*%
X196850000Y-90750000D02*
X195662500Y-90750000D01*
X198225000Y-100875000D02*
X198600000Y-100500000D01*
X166300000Y-94100000D02*
X168200000Y-94100000D01*
X197800000Y-91700000D02*
X196850000Y-90750000D01*
X168200000Y-94100000D02*
X170900000Y-96800000D01*
X170900000Y-96800000D02*
X170900000Y-100400000D01*
X170900000Y-100400000D02*
X171375000Y-100875000D01*
X171375000Y-100875000D02*
X198225000Y-100875000D01*
%TO.N,+6V*%
X161472900Y-99427100D02*
X160500000Y-99427100D01*
X161472900Y-99427100D02*
X164260000Y-96640000D01*
X155650001Y-99399999D02*
X160472899Y-99399999D01*
X164260000Y-96640000D02*
X166300000Y-96640000D01*
X160472899Y-99399999D02*
X160500000Y-99427100D01*
%TO.N,/AMPL_GAIN_SEL*%
X210752200Y-126850000D02*
X209750000Y-126850000D01*
X210500000Y-141100000D02*
X210500000Y-142700600D01*
X210500000Y-142700600D02*
X210456100Y-142744500D01*
X209750000Y-126850000D02*
X209300000Y-127300000D01*
X213425000Y-140775000D02*
X214000000Y-140775000D01*
X211455500Y-142744500D02*
X213425000Y-140775000D01*
X210456100Y-142744500D02*
X211455500Y-142744500D01*
%TO.N,Net-(J10-Pad3)*%
X212755000Y-145855000D02*
X211447900Y-144547900D01*
X211447900Y-144547900D02*
X210456100Y-144547900D01*
X214000000Y-145855000D02*
X212755000Y-145855000D01*
%TO.N,Net-(U2-VSW)*%
X189800000Y-111600000D02*
X208200000Y-111600000D01*
X208825000Y-112225000D02*
X208825000Y-114300000D01*
X208200000Y-111600000D02*
X208825000Y-112225000D01*
X189250000Y-97662500D02*
X189250000Y-99099000D01*
X189250000Y-99099000D02*
X189251000Y-99100000D01*
%TO.N,/I2S_LRCLK*%
X183100000Y-104924500D02*
X191824500Y-104924500D01*
X192600000Y-117300000D02*
X197100000Y-121800000D01*
X191726000Y-118174000D02*
X190900000Y-118174000D01*
X182894900Y-92250000D02*
X182884749Y-92260151D01*
X191824500Y-104924500D02*
X193200000Y-106300000D01*
X212450000Y-124050000D02*
X212450000Y-125652200D01*
X192600000Y-117300000D02*
X191726000Y-118174000D01*
X197100000Y-121800000D02*
X210200000Y-121800000D01*
X210200000Y-121800000D02*
X212450000Y-124050000D01*
X184337500Y-92250000D02*
X182894900Y-92250000D01*
%TO.N,Net-(MK1-SEL)*%
X192476900Y-115803400D02*
X193400000Y-115803400D01*
X191700000Y-117300000D02*
X191700000Y-116580300D01*
X190900000Y-117352000D02*
X191648000Y-117352000D01*
X191648000Y-117352000D02*
X191700000Y-117300000D01*
X191700000Y-116580300D02*
X192476900Y-115803400D01*
%TO.N,/I2S_BCLK*%
X187500000Y-109600000D02*
X187500000Y-109800000D01*
X176700000Y-108200000D02*
X186100000Y-108200000D01*
X187900000Y-117300000D02*
X189048000Y-117300000D01*
X209186986Y-122636987D02*
X210600000Y-124050001D01*
X187500000Y-116400000D02*
X187500000Y-116900000D01*
X210600000Y-125300000D02*
X210952200Y-125652200D01*
X184337500Y-91250000D02*
X176837829Y-91250000D01*
X210600000Y-124050001D02*
X210600000Y-125300000D01*
X176837829Y-91250000D02*
X176613329Y-91474500D01*
X187500000Y-116900000D02*
X187900000Y-117300000D01*
X189048000Y-117300000D02*
X189100000Y-117352000D01*
X189000000Y-122636987D02*
X209186986Y-122636987D01*
X186100000Y-108200000D02*
X187500000Y-109600000D01*
X210952200Y-125652200D02*
X211449999Y-125652200D01*
%TO.N,Net-(MK1-DATA)*%
X190000000Y-120998300D02*
X190001700Y-121000000D01*
X190000000Y-118174000D02*
X190000000Y-120998300D01*
%TO.N,Net-(U1-EN)*%
X165003400Y-80103400D02*
X165100000Y-80200000D01*
X161275000Y-80103400D02*
X165003400Y-80103400D01*
%TO.N,/I2S_DOUT*%
X186300000Y-121000000D02*
X188198300Y-121000000D01*
X186000000Y-94109315D02*
X186000000Y-95300000D01*
X184337500Y-93250000D02*
X185140685Y-93250000D01*
X185400000Y-120100000D02*
X186300000Y-121000000D01*
X185140685Y-93250000D02*
X186000000Y-94109315D01*
%TO.N,Net-(U3-STAT)*%
X177750000Y-64450000D02*
X179562500Y-64450000D01*
X176200000Y-62900000D02*
X177750000Y-64450000D01*
X175201700Y-62900000D02*
X176200000Y-62900000D01*
%TO.N,/V_DIV*%
X179300000Y-101600000D02*
X192000000Y-101600000D01*
X182196600Y-79800000D02*
X179300000Y-79800000D01*
X179300000Y-79800000D02*
X178600000Y-80500000D01*
X192800000Y-99100000D02*
X192750000Y-99050000D01*
X182196600Y-79800000D02*
X182196600Y-77000000D01*
X192750000Y-99050000D02*
X192750000Y-97662500D01*
%TO.N,Net-(U3-PROG)*%
X181890900Y-64503400D02*
X185500000Y-64503400D01*
X181837500Y-64450000D02*
X181890900Y-64503400D01*
%TO.N,Net-(U4-EN)*%
X199620480Y-71220480D02*
X201499400Y-71220480D01*
X197548100Y-67811200D02*
X197548100Y-69148100D01*
X197548100Y-69148100D02*
X199620480Y-71220480D01*
%TO.N,RED_LED*%
X182300000Y-92700000D02*
X183350000Y-93750000D01*
X183350000Y-93750000D02*
X184337500Y-93750000D01*
X181001700Y-92700000D02*
X182300000Y-92700000D01*
%TO.N,ESP_BLUE*%
X188986800Y-69817800D02*
X188986800Y-70986800D01*
X188986800Y-70986800D02*
X191400000Y-73400000D01*
X191400000Y-73400000D02*
X194500000Y-73400000D01*
X197400000Y-80100000D02*
X199950480Y-82650480D01*
X199950480Y-82650480D02*
X201499400Y-82650480D01*
X194500000Y-73400000D02*
X195100000Y-74000000D01*
%TO.N,ESP_RED*%
X191993400Y-69817800D02*
X191993400Y-70793400D01*
X196400000Y-72200000D02*
X196700000Y-72500000D01*
X191993400Y-70793400D02*
X193400000Y-72200000D01*
X193400000Y-72200000D02*
X196400000Y-72200000D01*
X199780480Y-81380480D02*
X201499400Y-81380480D01*
X198500000Y-80100000D02*
X199780480Y-81380480D01*
%TO.N,ESP_GREEN*%
X200110480Y-80110480D02*
X201499400Y-80110480D01*
X195000000Y-69817800D02*
X195000000Y-70500000D01*
X195000000Y-70500000D02*
X195500000Y-71000000D01*
X198400000Y-71800000D02*
X198500000Y-71800000D01*
X199600000Y-80100000D02*
X200100000Y-80100000D01*
X197900000Y-71300000D02*
X198400000Y-71800000D01*
X200100000Y-80100000D02*
X200110480Y-80110480D01*
X195500000Y-71000000D02*
X195800000Y-71300000D01*
X195800000Y-71300000D02*
X197900000Y-71300000D01*
%TO.N,Net-(R18-Pad1)*%
X195600000Y-136200000D02*
X197403400Y-138003400D01*
X193500000Y-136200000D02*
X195600000Y-136200000D01*
X201000000Y-143000000D02*
X201000000Y-138003400D01*
X197403400Y-138003400D02*
X201000000Y-138003400D01*
%TO.N,Net-(R19-Pad2)*%
X193500000Y-143000000D02*
X193500000Y-138003400D01*
X190300000Y-138003400D02*
X193500000Y-138003400D01*
%TO.N,JUMBO_LED*%
X201500000Y-120800000D02*
X201600000Y-120900000D01*
X195662500Y-90250000D02*
X197375305Y-90250000D01*
X197375305Y-90250000D02*
X199500000Y-92374695D01*
X201600000Y-120900000D02*
X217896600Y-120900000D01*
X199500000Y-92374695D02*
X199500000Y-92700000D01*
%TO.N,/SD_MODE*%
X205400000Y-140100000D02*
X208300000Y-137200000D01*
X208300000Y-130000000D02*
X208300000Y-135000000D01*
X208300000Y-137200000D02*
X208300000Y-135000000D01*
X196000000Y-143000000D02*
X196000000Y-141100000D01*
X196000000Y-141100000D02*
X197000000Y-140100000D01*
X210752200Y-127850001D02*
X210449999Y-127850001D01*
X210449999Y-127850001D02*
X208300000Y-130000000D01*
%TO.N,/ESP_Busy*%
X188800000Y-79500000D02*
X189459520Y-78840480D01*
X186750000Y-85534315D02*
X187884315Y-84400000D01*
X189459520Y-78840480D02*
X201499400Y-78840480D01*
X187884315Y-84400000D02*
X187900000Y-84400000D01*
X186750000Y-86337500D02*
X186750000Y-85534315D01*
%TO.N,/CS_Wifi*%
X221200000Y-87700000D02*
X220500000Y-88400000D01*
X228300000Y-96900000D02*
X228900000Y-96300000D01*
X186767811Y-90195892D02*
X186538703Y-90425000D01*
X219000000Y-82650480D02*
X220150480Y-82650480D01*
X186538703Y-90425000D02*
X185525000Y-90425000D01*
X185525000Y-90425000D02*
X185350000Y-90250000D01*
X220500000Y-88400000D02*
X216800000Y-88400000D01*
X187800000Y-81200000D02*
X187400000Y-81600000D01*
X199800000Y-88400000D02*
X199100000Y-87700000D01*
X216800000Y-88400000D02*
X199800000Y-88400000D01*
X220150480Y-82650480D02*
X221200000Y-83700000D01*
X226000000Y-96900000D02*
X228300000Y-96900000D01*
X185350000Y-90250000D02*
X184337500Y-90250000D01*
X227450480Y-82650480D02*
X219000000Y-82650480D01*
X197200000Y-81200000D02*
X187800000Y-81200000D01*
X228900000Y-84100000D02*
X227450480Y-82650480D01*
%TO.N,/I2S_DIN*%
X194949999Y-126349999D02*
X210752200Y-126349999D01*
X193900000Y-125300000D02*
X194949999Y-126349999D01*
X191750000Y-92750000D02*
X184337500Y-92750000D01*
X192300000Y-93300000D02*
X191750000Y-92750000D01*
%TO.N,/MISO_ESP*%
X227900000Y-74800000D02*
X225590480Y-72490480D01*
X226000000Y-95950000D02*
X227350000Y-95950000D01*
X225590480Y-72490480D02*
X219000000Y-72490480D01*
X227350000Y-95950000D02*
X227900000Y-95400000D01*
%TO.N,Net-(C20-Pad1)*%
X226000000Y-132540000D02*
X226000000Y-135600000D01*
X226000000Y-135600000D02*
X226300000Y-135900000D01*
X220362500Y-135800000D02*
X221062500Y-136500000D01*
X226300000Y-135900000D02*
X226200000Y-136000000D01*
X226200000Y-136000000D02*
X226200000Y-136500000D01*
X226200000Y-136500000D02*
X226200000Y-137800000D01*
X221062500Y-136500000D02*
X226200000Y-136500000D01*
%TD*%
M02*
