M48
; DRILL file {KiCad 7.0.6} date Fri Nov 17 16:50:33 2023
; FORMAT={-:-/ absolute / inch / decimal}
; #@! TF.CreationDate,2023-11-17T16:50:33-08:00
; #@! TF.GenerationSoftware,Kicad,Pcbnew,7.0.6
; #@! TF.FileFunction,Plated,1,4,PTH
FMAT,2
INCH
; #@! TA.AperFunction,Plated,PTH,ViaDrill
T1C0.0157
; #@! TA.AperFunction,Plated,PTH,ComponentDrill
T2C0.0236
; #@! TA.AperFunction,Plated,PTH,ComponentDrill
T3C0.0354
; #@! TA.AperFunction,Plated,PTH,ComponentDrill
T4C0.0394
; #@! TA.AperFunction,Plated,PTH,ComponentDrill
T5C0.0400
; #@! TA.AperFunction,Plated,PTH,ComponentDrill
T6C0.0402
; #@! TA.AperFunction,Plated,PTH,ComponentDrill
T7C0.0420
; #@! TA.AperFunction,Plated,PTH,ComponentDrill
T8C0.0510
%
G90
G05
T1
X6.1142Y-3.1339
X6.1811Y-2.9528
X6.1811Y-3.0551
X6.2795Y-3.3858
X6.2835Y-2.9803
X6.2835Y-3.0709
X6.2874Y-2.7244
X6.3189Y-3.7874
X6.3819Y-3.374
X6.3819Y-3.5551
X6.4449Y-3.122
X6.4516Y-2.7638
X6.4803Y-2.8465
X6.4803Y-3.2638
X6.5436Y-2.8128
X6.5472Y-3.2205
X6.5669Y-2.7638
X6.6457Y-3.0827
X6.6693Y-2.8858
X6.6732Y-2.7362
X6.7126Y-3.3031
X6.7126Y-3.7087
X6.7362Y-3.2047
X6.752Y-3.2874
X6.752Y-3.6969
X6.811Y-3.6535
X6.8346Y-2.8898
X6.8465Y-3.5157
X6.8465Y-4.0039
X6.8858Y-3.5423
X6.8858Y-4.0669
X6.8937Y-3.0827
X6.9213Y-3.5748
X6.9213Y-4.1339
X6.9533Y-3.6014
X6.9567Y-4.2598
X6.9685Y-2.6299
X6.9685Y-2.8346
X7.0079Y-2.5748
X7.0315Y-3.1693
X7.0591Y-4.0
X7.0827Y-4.6575
X7.1142Y-3.7579
X7.1457Y-4.9016
X7.1535Y-3.4764
X7.1575Y-3.7795
X7.1811Y-5.2874
X7.189Y-3.4488
X7.2002Y-3.6323
X7.2047Y-4.6772
X7.2087Y-4.1309
X7.2323Y-4.9016
X7.2402Y-4.1654
X7.2835Y-5.2913
X7.2992Y-4.7283
X7.3031Y-2.4213
X7.3031Y-3.1417
X7.3189Y-4.5315
X7.3189Y-4.6575
X7.3189Y-3.5315
X7.3189Y-4.3976
X7.3228Y-3.752
X7.3307Y-3.9016
X7.3307Y-4.0354
X7.3425Y-3.2441
X7.3531Y-3.551
X7.3543Y-4.1024
X7.3592Y-3.9368
X7.378Y-3.2126
X7.3819Y-4.3228
X7.3819Y-4.5827
X7.3898Y-3.9016
X7.3976Y-3.3228
X7.4213Y-3.9331
X7.4331Y-3.1299
X7.4409Y-2.4094
X7.4409Y-4.4291
X7.4409Y-4.8282
X7.4449Y-4.7008
X7.4508Y-3.9016
X7.4528Y-4.4921
X7.4567Y-3.7766
X7.4724Y-4.3937
X7.4794Y-3.937
X7.4794Y-4.0787
X7.4921Y-5.311
X7.5079Y-3.9035
X7.5079Y-4.1654
X7.5118Y-3.7766
X7.5157Y-3.3228
X7.5591Y-2.4094
X7.5591Y-4.0
X7.563Y-3.3228
X7.5709Y-3.6732
X7.5827Y-4.6181
X7.5866Y-3.5669
X7.5906Y-3.9016
X7.6063Y-4.185
X7.6339Y-3.7559
X7.6339Y-4.9331
X7.6732Y-3.3071
X7.6772Y-2.4134
X7.6772Y-4.4882
X7.6811Y-2.9134
X7.6969Y-5.0276
X7.6969Y-5.2008
X7.7402Y-4.5
X7.7402Y-4.689
X7.7441Y-2.8543
X7.7559Y-5.5157
X7.7598Y-3.2441
X7.7633Y-3.6609
X7.7638Y-3.1969
X7.7717Y-3.1535
X7.7756Y-2.5472
X7.7874Y-3.6102
X7.7913Y-3.4724
X7.7992Y-4.1339
X7.7992Y-4.8819
X7.815Y-2.8268
X7.815Y-3.1535
X7.8189Y-3.9567
X7.8386Y-3.4528
X7.8543Y-3.6496
X7.8583Y-3.1535
X7.8701Y-2.7047
X7.8701Y-2.7559
X7.9134Y-4.5591
X7.9134Y-5.315
X7.9213Y-4.0591
X7.9331Y-4.7559
X7.9921Y-3.8937
X7.9921Y-4.2795
X8.063Y-4.1929
X8.0787Y-5.315
X8.0866Y-5.5157
X8.1378Y-3.626
X8.1732Y-4.0945
X8.1929Y-3.5866
X8.2116Y-5.063
X8.2165Y-4.0709
X8.2402Y-5.0118
X8.2874Y-5.5551
X8.3031Y-4.7087
X8.3263Y-4.8863
X8.3858Y-4.1929
X8.3858Y-5.122
X8.4685Y-3.5669
X8.4724Y-4.9764
X8.4803Y-5.0472
X8.4803Y-5.1929
X8.5079Y-3.7402
X8.5079Y-3.8386
X8.5276Y-5.0472
X8.5276Y-5.315
X8.5394Y-4.3465
X8.5433Y-4.0315
X8.6732Y-3.622
X8.6811Y-5.7402
X8.7087Y-3.2953
X8.7087Y-3.4528
X8.7244Y-3.815
X8.752Y-3.2165
X8.752Y-3.4803
X8.7677Y-4.9134
X8.7795Y-5.4252
X8.8976Y-3.6811
X8.9724Y-2.9449
X8.9724Y-3.7559
X9.0118Y-3.311
X9.0118Y-3.7913
T3
X7.5197Y-5.6299
X7.5197Y-5.7283
X7.6181Y-5.6299
X7.6181Y-5.7283
X7.7165Y-5.6299
X7.7165Y-5.7283
X7.9134Y-5.6299
X7.9134Y-5.7283
X8.0118Y-5.6299
X8.0118Y-5.7283
T4
X6.037Y-4.252
X6.137Y-4.252
X6.237Y-4.252
X6.337Y-4.252
X6.437Y-4.252
X6.537Y-4.252
X6.637Y-4.252
X6.737Y-4.252
X6.837Y-4.252
X8.4252Y-5.5423
X8.4252Y-5.6423
X8.4252Y-5.7423
X8.5827Y-5.5402
X8.5827Y-5.6402
X8.5827Y-5.7402
T5
X8.8976Y-4.0339
X8.8976Y-4.1339
X8.8976Y-4.3488
X8.8976Y-4.4488
X8.8976Y-4.6638
X8.8976Y-4.7638
T6
X7.0472Y-4.8031
X7.2047Y-4.8031
T7
X6.5472Y-3.7047
X6.5472Y-3.8047
X6.5472Y-3.9047
T8
X8.8976Y-5.1181
X8.8976Y-5.2181
T2
G00X6.3386Y-2.4921
M15
G01X6.3386Y-2.4685
M16
G05
G00X6.3386Y-2.6665
M15
G01X6.3386Y-2.6232
M16
G05
G00X6.6787Y-2.4921
M15
G01X6.6787Y-2.4685
M16
G05
G00X6.6787Y-2.6665
M15
G01X6.6787Y-2.6232
M16
G05
T0
M30
