%TF.GenerationSoftware,KiCad,Pcbnew,7.0.6*%
%TF.CreationDate,2023-11-17T16:50:28-08:00*%
%TF.ProjectId,Final_Project_4Layer,46696e61-6c5f-4507-926f-6a6563745f34,1.0*%
%TF.SameCoordinates,Original*%
%TF.FileFunction,Soldermask,Top*%
%TF.FilePolarity,Negative*%
%FSLAX46Y46*%
G04 Gerber Fmt 4.6, Leading zero omitted, Abs format (unit mm)*
G04 Created by KiCad (PCBNEW 7.0.6) date 2023-11-17 16:50:28*
%MOMM*%
%LPD*%
G01*
G04 APERTURE LIST*
G04 Aperture macros list*
%AMRoundRect*
0 Rectangle with rounded corners*
0 $1 Rounding radius*
0 $2 $3 $4 $5 $6 $7 $8 $9 X,Y pos of 4 corners*
0 Add a 4 corners polygon primitive as box body*
4,1,4,$2,$3,$4,$5,$6,$7,$8,$9,$2,$3,0*
0 Add four circle primitives for the rounded corners*
1,1,$1+$1,$2,$3*
1,1,$1+$1,$4,$5*
1,1,$1+$1,$6,$7*
1,1,$1+$1,$8,$9*
0 Add four rect primitives between the rounded corners*
20,1,$1+$1,$2,$3,$4,$5,0*
20,1,$1+$1,$4,$5,$6,$7,0*
20,1,$1+$1,$6,$7,$8,$9,0*
20,1,$1+$1,$8,$9,$2,$3,0*%
%AMFreePoly0*
4,1,53,0.180687,1.453641,0.352314,1.393587,0.506274,1.296847,0.634847,1.168274,0.731587,1.014314,0.791641,0.842687,0.812000,0.662000,0.791641,0.481313,0.731587,0.309686,0.634847,0.155726,0.506274,0.027153,0.352314,-0.069587,0.180687,-0.129641,0.000000,-0.150000,-0.180687,-0.129641,-0.352314,-0.069587,-0.506274,0.027153,-0.634847,0.155726,-0.731587,0.309686,-0.791641,0.481313,
-0.812000,0.662000,-0.517265,0.662000,-0.496312,0.516270,-0.435151,0.382345,-0.338737,0.271077,-0.214880,0.191479,-0.073614,0.150000,0.073614,0.150000,0.214880,0.191479,0.338737,0.271077,0.435151,0.382345,0.496312,0.516270,0.517265,0.662000,0.496312,0.807730,0.435151,0.941655,0.338737,1.052923,0.214880,1.132521,0.073614,1.174000,-0.073614,1.174000,-0.214880,1.132521,
-0.338737,1.052923,-0.435151,0.941655,-0.496312,0.807730,-0.517265,0.662000,-0.812000,0.662000,-0.791641,0.842687,-0.731587,1.014314,-0.634847,1.168274,-0.506274,1.296847,-0.352314,1.393587,-0.180687,1.453641,0.000000,1.474000,0.180687,1.453641,0.180687,1.453641,$1*%
%AMFreePoly1*
4,1,6,1.000000,0.000000,0.500000,-0.750000,-0.500000,-0.750000,-0.500000,0.750000,0.500000,0.750000,1.000000,0.000000,1.000000,0.000000,$1*%
%AMFreePoly2*
4,1,6,0.500000,-0.750000,-0.650000,-0.750000,-0.150000,0.000000,-0.650000,0.750000,0.500000,0.750000,0.500000,-0.750000,0.500000,-0.750000,$1*%
G04 Aperture macros list end*
%ADD10O,1.700000X1.700000*%
%ADD11R,1.700000X1.700000*%
%ADD12R,0.711200X0.762000*%
%ADD13R,0.762000X0.711200*%
%ADD14R,5.511800X0.990600*%
%ADD15R,3.098800X1.701800*%
%ADD16C,1.574800*%
%ADD17R,1.346200X0.812800*%
%ADD18R,0.812800X1.346200*%
%ADD19R,1.244600X0.863600*%
%ADD20C,3.200000*%
%ADD21R,0.863600X1.244600*%
%ADD22R,0.660400X2.768600*%
%ADD23C,1.524000*%
%ADD24C,0.650000*%
%ADD25R,0.300000X1.150000*%
%ADD26O,1.000000X2.100000*%
%ADD27O,1.000000X1.600000*%
%ADD28RoundRect,0.075000X0.662500X0.075000X-0.662500X0.075000X-0.662500X-0.075000X0.662500X-0.075000X0*%
%ADD29RoundRect,0.075000X0.075000X0.662500X-0.075000X0.662500X-0.075000X-0.662500X0.075000X-0.662500X0*%
%ADD30RoundRect,0.150000X-0.512500X-0.150000X0.512500X-0.150000X0.512500X0.150000X-0.512500X0.150000X0*%
%ADD31RoundRect,0.218750X-0.218750X-0.381250X0.218750X-0.381250X0.218750X0.381250X-0.218750X0.381250X0*%
%ADD32R,1.498600X0.889000*%
%ADD33R,0.889000X1.498600*%
%ADD34R,0.889000X0.889000*%
%ADD35RoundRect,0.150000X-0.587500X-0.150000X0.587500X-0.150000X0.587500X0.150000X-0.587500X0.150000X0*%
%ADD36C,0.500000*%
%ADD37RoundRect,0.130500X0.169500X0.130500X-0.169500X0.130500X-0.169500X-0.130500X0.169500X-0.130500X0*%
%ADD38FreePoly0,270.000000*%
%ADD39RoundRect,0.102000X-0.750000X0.500000X-0.750000X-0.500000X0.750000X-0.500000X0.750000X0.500000X0*%
%ADD40R,0.355600X0.660400*%
%ADD41RoundRect,0.102000X-0.704000X-0.704000X0.704000X-0.704000X0.704000X0.704000X-0.704000X0.704000X0*%
%ADD42C,1.612000*%
%ADD43FreePoly1,270.000000*%
%ADD44FreePoly2,270.000000*%
%ADD45C,1.734000*%
%ADD46R,0.812800X0.254000*%
%ADD47R,0.254000X0.812800*%
%ADD48R,1.244600X1.244600*%
%ADD49R,0.990600X0.889000*%
%ADD50R,1.560000X0.650000*%
%ADD51C,1.803400*%
%ADD52R,1.800000X1.000000*%
G04 APERTURE END LIST*
D10*
%TO.C,J5*%
X153340000Y-108000000D03*
X155880000Y-108000000D03*
X158420000Y-108000000D03*
X160960000Y-108000000D03*
X163500000Y-108000000D03*
X166040000Y-108000000D03*
X168580000Y-108000000D03*
X171120000Y-108000000D03*
D11*
X173660000Y-108000000D03*
%TD*%
D12*
%TO.C,D6*%
X192000000Y-62365000D03*
X192000000Y-63914400D03*
%TD*%
D13*
%TO.C,D2*%
X173425300Y-65400000D03*
X174974700Y-65400000D03*
%TD*%
D14*
%TO.C,J11*%
X155650001Y-99399999D03*
X155650001Y-97399997D03*
D15*
X153400000Y-101799996D03*
X153400000Y-95000000D03*
%TD*%
D16*
%TO.C,J9*%
X166300000Y-94100000D03*
X166300000Y-96640000D03*
X166300000Y-99180000D03*
%TD*%
D11*
%TO.C,J7*%
X218000000Y-140720000D03*
D10*
X218000000Y-143260000D03*
X218000000Y-145800000D03*
%TD*%
D17*
%TO.C,R19*%
X193500000Y-136200000D03*
X193500000Y-138003400D03*
%TD*%
D18*
%TO.C,R10*%
X182196600Y-77000000D03*
X184000000Y-77000000D03*
%TD*%
D19*
%TO.C,C6*%
X173400000Y-78300000D03*
X173400000Y-80154200D03*
%TD*%
%TO.C,C11*%
X165000000Y-87100000D03*
X165000000Y-88954200D03*
%TD*%
D18*
%TO.C,R9*%
X175201700Y-62900000D03*
X173398300Y-62900000D03*
%TD*%
D20*
%TO.C,H4*%
X182000000Y-144000000D03*
%TD*%
D19*
%TO.C,C12*%
X167900000Y-87100000D03*
X167900000Y-88954200D03*
%TD*%
D17*
%TO.C,R20*%
X190300000Y-138003400D03*
X190300000Y-136200000D03*
%TD*%
D21*
%TO.C,C20*%
X226200000Y-137800000D03*
X224345800Y-137800000D03*
%TD*%
D18*
%TO.C,R22*%
X208300000Y-135000000D03*
X206496600Y-135000000D03*
%TD*%
D19*
%TO.C,C13*%
X206725000Y-119554200D03*
X206725000Y-117700000D03*
%TD*%
D17*
%TO.C,R13*%
X197548100Y-66007800D03*
X197548100Y-67811200D03*
%TD*%
D19*
%TO.C,C17*%
X198000000Y-130854200D03*
X198000000Y-129000000D03*
%TD*%
D22*
%TO.C,J1*%
X182460000Y-128000000D03*
X183730000Y-128000000D03*
X185000000Y-128000000D03*
X186270000Y-128000000D03*
X187540000Y-128000000D03*
X182460000Y-132039996D03*
X183730000Y-132039996D03*
X185000000Y-132039996D03*
X186270000Y-132039996D03*
X187540000Y-132039996D03*
%TD*%
D19*
%TO.C,C10*%
X162100000Y-87100000D03*
X162100000Y-88954200D03*
%TD*%
D17*
%TO.C,R16*%
X191993400Y-69817800D03*
X191993400Y-68014400D03*
%TD*%
%TO.C,R23*%
X210456100Y-142744500D03*
X210456100Y-144547900D03*
%TD*%
D23*
%TO.C,J3*%
X226000000Y-105000000D03*
X226000000Y-102460000D03*
%TD*%
D18*
%TO.C,R21*%
X217896600Y-120900000D03*
X219700000Y-120900000D03*
%TD*%
%TO.C,R14*%
X181001700Y-92700000D03*
X179198300Y-92700000D03*
%TD*%
D24*
%TO.C,J6*%
X168210000Y-66680000D03*
X162430000Y-66680000D03*
D25*
X168670000Y-67745000D03*
X167870000Y-67745000D03*
X166570000Y-67745000D03*
X165570000Y-67745000D03*
X165070000Y-67745000D03*
X164070000Y-67745000D03*
X162770000Y-67745000D03*
X161970000Y-67745000D03*
X162270000Y-67745000D03*
X163070000Y-67745000D03*
X163570000Y-67745000D03*
X164570000Y-67745000D03*
X166070000Y-67745000D03*
X167070000Y-67745000D03*
X167570000Y-67745000D03*
X168370000Y-67745000D03*
D26*
X169640000Y-67180000D03*
D27*
X169640000Y-63000000D03*
D26*
X161000000Y-67180000D03*
D27*
X161000000Y-63000000D03*
%TD*%
D28*
%TO.C,U2*%
X195662500Y-95750000D03*
X195662500Y-95250000D03*
X195662500Y-94750000D03*
X195662500Y-94250000D03*
X195662500Y-93750000D03*
X195662500Y-93250000D03*
X195662500Y-92750000D03*
X195662500Y-92250000D03*
X195662500Y-91750000D03*
X195662500Y-91250000D03*
X195662500Y-90750000D03*
X195662500Y-90250000D03*
X195662500Y-89750000D03*
X195662500Y-89250000D03*
X195662500Y-88750000D03*
X195662500Y-88250000D03*
D29*
X193750000Y-86337500D03*
X193250000Y-86337500D03*
X192750000Y-86337500D03*
X192250000Y-86337500D03*
X191750000Y-86337500D03*
X191250000Y-86337500D03*
X190750000Y-86337500D03*
X190250000Y-86337500D03*
X189750000Y-86337500D03*
X189250000Y-86337500D03*
X188750000Y-86337500D03*
X188250000Y-86337500D03*
X187750000Y-86337500D03*
X187250000Y-86337500D03*
X186750000Y-86337500D03*
X186250000Y-86337500D03*
D28*
X184337500Y-88250000D03*
X184337500Y-88750000D03*
X184337500Y-89250000D03*
X184337500Y-89750000D03*
X184337500Y-90250000D03*
X184337500Y-90750000D03*
X184337500Y-91250000D03*
X184337500Y-91750000D03*
X184337500Y-92250000D03*
X184337500Y-92750000D03*
X184337500Y-93250000D03*
X184337500Y-93750000D03*
X184337500Y-94250000D03*
X184337500Y-94750000D03*
X184337500Y-95250000D03*
X184337500Y-95750000D03*
D29*
X186250000Y-97662500D03*
X186750000Y-97662500D03*
X187250000Y-97662500D03*
X187750000Y-97662500D03*
X188250000Y-97662500D03*
X188750000Y-97662500D03*
X189250000Y-97662500D03*
X189750000Y-97662500D03*
X190250000Y-97662500D03*
X190750000Y-97662500D03*
X191250000Y-97662500D03*
X191750000Y-97662500D03*
X192250000Y-97662500D03*
X192750000Y-97662500D03*
X193250000Y-97662500D03*
X193750000Y-97662500D03*
%TD*%
D30*
%TO.C,U1*%
X165100000Y-78300000D03*
X165100000Y-79250000D03*
X165100000Y-80200000D03*
X167375000Y-80200000D03*
X167375000Y-78300000D03*
%TD*%
D31*
%TO.C,FB2*%
X218237500Y-135800000D03*
X220362500Y-135800000D03*
%TD*%
D18*
%TO.C,R11*%
X184000000Y-79800000D03*
X182196600Y-79800000D03*
%TD*%
D21*
%TO.C,C9*%
X214800000Y-95000000D03*
X212945800Y-95000000D03*
%TD*%
D32*
%TO.C,U4*%
X201499400Y-68680480D03*
X201499400Y-69950480D03*
X201499400Y-71220480D03*
X201499400Y-72490480D03*
X201499400Y-73760480D03*
X201499400Y-75030480D03*
X201499400Y-76300480D03*
X201499400Y-77570480D03*
X201499400Y-78840480D03*
X201499400Y-80110480D03*
X201499400Y-81380480D03*
X201499400Y-82650480D03*
X201499400Y-83920480D03*
X201499400Y-85190480D03*
D33*
X203264700Y-86440160D03*
X204534700Y-86440160D03*
X205804700Y-86440160D03*
X207074700Y-86440160D03*
X208344700Y-86440160D03*
X209614700Y-86440160D03*
X210884700Y-86440160D03*
X212154700Y-86440160D03*
X213424700Y-86440160D03*
X214694700Y-86440160D03*
X215964700Y-86440160D03*
X217234700Y-86440160D03*
D32*
X219000000Y-85190480D03*
X219000000Y-83920480D03*
X219000000Y-82650480D03*
X219000000Y-81380480D03*
X219000000Y-80110480D03*
X219000000Y-78840480D03*
X219000000Y-77570480D03*
X219000000Y-76300480D03*
X219000000Y-75030480D03*
X219000000Y-73760480D03*
X219000000Y-72490480D03*
X219000000Y-71220480D03*
X219000000Y-69950480D03*
X219000000Y-68680480D03*
D34*
X208748560Y-76399540D03*
X208748560Y-75000000D03*
X207349020Y-75000000D03*
X207349020Y-76399540D03*
X207349020Y-77799080D03*
X208748560Y-77799080D03*
X210148100Y-77799080D03*
X210148100Y-76399540D03*
X210148100Y-75000000D03*
%TD*%
D11*
%TO.C,J10*%
X214000000Y-140775000D03*
D10*
X214000000Y-143315000D03*
X214000000Y-145855000D03*
%TD*%
D14*
%TO.C,J4*%
X155650001Y-88000000D03*
X155650001Y-85999998D03*
D15*
X153400000Y-90399997D03*
X153400000Y-83600001D03*
%TD*%
D21*
%TO.C,C3*%
X152145800Y-79600000D03*
X154000000Y-79600000D03*
%TD*%
D35*
%TO.C,Q1*%
X152125000Y-74150000D03*
X152125000Y-76050000D03*
X154000000Y-75100000D03*
%TD*%
D31*
%TO.C,L1*%
X206700000Y-114300000D03*
X208825000Y-114300000D03*
%TD*%
D19*
%TO.C,C5*%
X171075000Y-78300000D03*
X171075000Y-80154200D03*
%TD*%
D18*
%TO.C,R6*%
X184000000Y-113500000D03*
X185803400Y-113500000D03*
%TD*%
D19*
%TO.C,C21*%
X202800000Y-128972900D03*
X202800000Y-130827100D03*
%TD*%
D18*
%TO.C,R7*%
X188198300Y-121000000D03*
X190001700Y-121000000D03*
%TD*%
D17*
%TO.C,R12*%
X185500000Y-62700000D03*
X185500000Y-64503400D03*
%TD*%
D36*
%TO.C,MK1*%
X190000000Y-116100000D03*
D37*
X190900000Y-118174000D03*
X190900000Y-117352000D03*
D38*
X189338000Y-116100000D03*
D37*
X189100000Y-117352000D03*
X189100000Y-118174000D03*
X190000000Y-118174000D03*
%TD*%
D39*
%TO.C,D4*%
X211300000Y-109700000D03*
X211300000Y-106500000D03*
X206400000Y-106500000D03*
X206400000Y-109700000D03*
%TD*%
D40*
%TO.C,D1*%
X161200000Y-74938400D03*
X161200000Y-72500000D03*
%TD*%
D12*
%TO.C,D7*%
X195000000Y-62439700D03*
X195000000Y-63989100D03*
%TD*%
D18*
%TO.C,R8*%
X199901700Y-103101700D03*
X198098300Y-103101700D03*
%TD*%
D17*
%TO.C,R4*%
X193400000Y-114000000D03*
X193400000Y-115803400D03*
%TD*%
D31*
%TO.C,FB1*%
X218237500Y-133300000D03*
X220362500Y-133300000D03*
%TD*%
D41*
%TO.C,S1*%
X191000000Y-145500000D03*
D42*
X193500000Y-145500000D03*
X196000000Y-145500000D03*
X201000000Y-145500000D03*
X203500000Y-145500000D03*
X203500000Y-143000000D03*
X201000000Y-143000000D03*
X196000000Y-143000000D03*
X193500000Y-143000000D03*
X191000000Y-143000000D03*
%TD*%
D21*
%TO.C,C7*%
X217000000Y-92000000D03*
X218854200Y-92000000D03*
%TD*%
D43*
%TO.C,JP1*%
X213000000Y-90600000D03*
D44*
X213000000Y-92050000D03*
%TD*%
D45*
%TO.C,TP1*%
X183000000Y-122000000D03*
%TD*%
D17*
%TO.C,R15*%
X188986800Y-69817800D03*
X188986800Y-68014400D03*
%TD*%
D23*
%TO.C,J8*%
X226000000Y-121000000D03*
X226000000Y-118460000D03*
%TD*%
%TO.C,J2*%
X226000000Y-113000000D03*
X226000000Y-110460000D03*
%TD*%
D18*
%TO.C,R1*%
X168103400Y-73300000D03*
X166300000Y-73300000D03*
%TD*%
D45*
%TO.C,TP2*%
X179000000Y-122000000D03*
%TD*%
D20*
%TO.C,H2*%
X225000000Y-65000000D03*
%TD*%
D18*
%TO.C,R2*%
X218096600Y-110460000D03*
X219900000Y-110460000D03*
%TD*%
D46*
%TO.C,U6*%
X210752200Y-126349999D03*
X210752200Y-126850000D03*
X210752200Y-127350000D03*
X210752200Y-127850001D03*
D47*
X211449999Y-128547800D03*
X211950000Y-128547800D03*
X212450000Y-128547800D03*
X212950001Y-128547800D03*
D46*
X213647800Y-127850001D03*
X213647800Y-127350000D03*
X213647800Y-126850000D03*
X213647800Y-126349999D03*
D47*
X212950001Y-125652200D03*
X212450000Y-125652200D03*
X211950000Y-125652200D03*
X211449999Y-125652200D03*
D48*
X212200000Y-127100000D03*
%TD*%
D19*
%TO.C,C14*%
X208925000Y-119554200D03*
X208925000Y-117700000D03*
%TD*%
D21*
%TO.C,C8*%
X214772900Y-97500000D03*
X212918700Y-97500000D03*
%TD*%
D17*
%TO.C,R18*%
X201000000Y-138003400D03*
X201000000Y-136200000D03*
%TD*%
D21*
%TO.C,C15*%
X175090900Y-73378500D03*
X176945100Y-73378500D03*
%TD*%
%TO.C,C4*%
X183972900Y-116700000D03*
X185827100Y-116700000D03*
%TD*%
D49*
%TO.C,SW1*%
X179899998Y-112800000D03*
X181500000Y-112800000D03*
X179899998Y-116899996D03*
X181500000Y-116899996D03*
%TD*%
D20*
%TO.C,H3*%
X225000000Y-144000000D03*
%TD*%
D19*
%TO.C,C1*%
X196572900Y-115772900D03*
X196572900Y-117627100D03*
%TD*%
D18*
%TO.C,R3*%
X218272800Y-102434900D03*
X220076200Y-102434900D03*
%TD*%
D17*
%TO.C,R17*%
X195000000Y-69817800D03*
X195000000Y-68014400D03*
%TD*%
D19*
%TO.C,C16*%
X195500000Y-130854200D03*
X195500000Y-129000000D03*
%TD*%
D12*
%TO.C,D5*%
X189000000Y-62365000D03*
X189000000Y-63914400D03*
%TD*%
D30*
%TO.C,U3*%
X179562500Y-64450000D03*
X179562500Y-65400000D03*
X179562500Y-66350000D03*
X181837500Y-66350000D03*
X181837500Y-64450000D03*
%TD*%
D19*
%TO.C,C2*%
X199400000Y-115800000D03*
X199400000Y-117654200D03*
%TD*%
D17*
%TO.C,R5*%
X161275000Y-80103400D03*
X161275000Y-78300000D03*
%TD*%
D50*
%TO.C,U5*%
X226000000Y-96900000D03*
X226000000Y-95950000D03*
X226000000Y-95000000D03*
X223300000Y-95000000D03*
X223300000Y-96900000D03*
%TD*%
D19*
%TO.C,C23*%
X160500000Y-99427100D03*
X160500000Y-97572900D03*
%TD*%
%TO.C,C22*%
X200400000Y-129000000D03*
X200400000Y-130854200D03*
%TD*%
D51*
%TO.C,J12*%
X226000000Y-132540000D03*
X226000000Y-130000000D03*
%TD*%
D19*
%TO.C,C19*%
X205300000Y-128972900D03*
X205300000Y-130827100D03*
%TD*%
D21*
%TO.C,C18*%
X226000000Y-124800000D03*
X224145800Y-124800000D03*
%TD*%
D20*
%TO.C,H1*%
X155000000Y-65000000D03*
%TD*%
D52*
%TO.C,Y1*%
X210000000Y-95000000D03*
X210000000Y-97500000D03*
%TD*%
D13*
%TO.C,D3*%
X174750600Y-92800000D03*
X176300000Y-92800000D03*
%TD*%
M02*
