%TF.GenerationSoftware,KiCad,Pcbnew,7.0.6*%
%TF.CreationDate,2023-11-17T16:50:28-08:00*%
%TF.ProjectId,Final_Project_4Layer,46696e61-6c5f-4507-926f-6a6563745f34,1.0*%
%TF.SameCoordinates,Original*%
%TF.FileFunction,Copper,L4,Bot*%
%TF.FilePolarity,Positive*%
%FSLAX46Y46*%
G04 Gerber Fmt 4.6, Leading zero omitted, Abs format (unit mm)*
G04 Created by KiCad (PCBNEW 7.0.6) date 2023-11-17 16:50:28*
%MOMM*%
%LPD*%
G01*
G04 APERTURE LIST*
%TA.AperFunction,ComponentPad*%
%ADD10O,1.700000X1.700000*%
%TD*%
%TA.AperFunction,ComponentPad*%
%ADD11R,1.700000X1.700000*%
%TD*%
%TA.AperFunction,ComponentPad*%
%ADD12C,1.574800*%
%TD*%
%TA.AperFunction,ComponentPad*%
%ADD13C,1.524000*%
%TD*%
%TA.AperFunction,ComponentPad*%
%ADD14O,1.000000X2.100000*%
%TD*%
%TA.AperFunction,ComponentPad*%
%ADD15O,1.000000X1.600000*%
%TD*%
%TA.AperFunction,ComponentPad*%
%ADD16R,1.408000X1.408000*%
%TD*%
%TA.AperFunction,ComponentPad*%
%ADD17C,1.408000*%
%TD*%
%TA.AperFunction,ComponentPad*%
%ADD18C,1.530000*%
%TD*%
%TA.AperFunction,ComponentPad*%
%ADD19C,1.803400*%
%TD*%
%TA.AperFunction,ViaPad*%
%ADD20C,0.800000*%
%TD*%
%TA.AperFunction,Conductor*%
%ADD21C,0.250000*%
%TD*%
%TA.AperFunction,Conductor*%
%ADD22C,0.200000*%
%TD*%
G04 APERTURE END LIST*
D10*
%TO.P,J5,9,9*%
%TO.N,/Card_Detect*%
X153340000Y-108000000D03*
%TO.P,J5,8,8*%
%TO.N,unconnected-(J5-Pad8)*%
X155880000Y-108000000D03*
%TO.P,J5,7,7*%
%TO.N,/MISO*%
X158420000Y-108000000D03*
%TO.P,J5,6,6*%
%TO.N,GND*%
X160960000Y-108000000D03*
%TO.P,J5,5,5*%
%TO.N,/SCK*%
X163500000Y-108000000D03*
%TO.P,J5,4,4*%
%TO.N,+3.3V*%
X166040000Y-108000000D03*
%TO.P,J5,3,3*%
%TO.N,/MOSI*%
X168580000Y-108000000D03*
%TO.P,J5,2,2*%
%TO.N,/CS_Card*%
X171120000Y-108000000D03*
D11*
%TO.P,J5,1,1*%
%TO.N,unconnected-(J5-Pad1)*%
X173660000Y-108000000D03*
%TD*%
D12*
%TO.P,J9,1,Pin_1*%
%TO.N,PWM_Servo*%
X166300000Y-94100000D03*
%TO.P,J9,2,Pin_2*%
%TO.N,+6V*%
X166300000Y-96640000D03*
%TO.P,J9,3,Pin_3*%
%TO.N,GND*%
X166300000Y-99180000D03*
%TD*%
D11*
%TO.P,J7,1,1*%
%TO.N,+3.3V*%
X218000000Y-140720000D03*
D10*
%TO.P,J7,2,2*%
%TO.N,Net-(J10-Pad2)*%
X218000000Y-143260000D03*
%TO.P,J7,3,3*%
%TO.N,GND*%
X218000000Y-145800000D03*
%TD*%
D13*
%TO.P,J3,1,Pin_1*%
%TO.N,+3.3V*%
X226000000Y-105000000D03*
%TO.P,J3,2,Pin_2*%
%TO.N,/Force_Signal*%
X226000000Y-102460000D03*
%TD*%
D14*
%TO.P,J6,S1,SHIELD*%
%TO.N,GND*%
X169640000Y-67180000D03*
D15*
X169640000Y-63000000D03*
D14*
X161000000Y-67180000D03*
D15*
X161000000Y-63000000D03*
%TD*%
D11*
%TO.P,J10,1,1*%
%TO.N,/AMPL_GAIN_SEL*%
X214000000Y-140775000D03*
D10*
%TO.P,J10,2,2*%
%TO.N,Net-(J10-Pad2)*%
X214000000Y-143315000D03*
%TO.P,J10,3,3*%
%TO.N,Net-(J10-Pad3)*%
X214000000Y-145855000D03*
%TD*%
D16*
%TO.P,S1,1*%
%TO.N,unconnected-(S1-Pad1)*%
X191000000Y-145500000D03*
D17*
%TO.P,S1,2*%
%TO.N,unconnected-(S1-Pad2)*%
X193500000Y-145500000D03*
%TO.P,S1,3*%
%TO.N,unconnected-(S1-Pad3)*%
X196000000Y-145500000D03*
%TO.P,S1,4*%
%TO.N,unconnected-(S1-Pad4)*%
X201000000Y-145500000D03*
%TO.P,S1,5*%
%TO.N,unconnected-(S1-Pad5)*%
X203500000Y-145500000D03*
%TO.P,S1,6*%
%TO.N,+3.3V*%
X203500000Y-143000000D03*
%TO.P,S1,7*%
%TO.N,Net-(R18-Pad1)*%
X201000000Y-143000000D03*
%TO.P,S1,8*%
%TO.N,/SD_MODE*%
X196000000Y-143000000D03*
%TO.P,S1,9*%
%TO.N,Net-(R19-Pad2)*%
X193500000Y-143000000D03*
%TO.P,S1,10*%
%TO.N,GND*%
X191000000Y-143000000D03*
%TD*%
D18*
%TO.P,TP1,TP,1*%
%TO.N,/SWDIO*%
X183000000Y-122000000D03*
%TD*%
D13*
%TO.P,J8,1,Pin_1*%
%TO.N,Net-(J8-Pin_1)*%
X226000000Y-121000000D03*
%TO.P,J8,2,Pin_2*%
%TO.N,GND*%
X226000000Y-118460000D03*
%TD*%
%TO.P,J2,1,Pin_1*%
%TO.N,+3.3V*%
X226000000Y-113000000D03*
%TO.P,J2,2,Pin_2*%
%TO.N,/Button_Signal*%
X226000000Y-110460000D03*
%TD*%
D18*
%TO.P,TP2,TP,1*%
%TO.N,/SWCLK*%
X179000000Y-122000000D03*
%TD*%
D19*
%TO.P,J12,1,1*%
%TO.N,Net-(C20-Pad1)*%
X226000000Y-132540000D03*
%TO.P,J12,2,2*%
%TO.N,Net-(C18-Pad1)*%
X226000000Y-130000000D03*
%TD*%
D20*
%TO.N,+3.3V*%
X189100000Y-119400000D03*
X175100000Y-78300000D03*
X182400000Y-134300000D03*
X197500000Y-64700000D03*
X192700000Y-90600000D03*
X201000000Y-115800000D03*
X201000000Y-135000000D03*
X181700000Y-88300000D03*
X213000000Y-130100000D03*
X181800000Y-96000000D03*
X185899500Y-115100000D03*
X221600000Y-96900000D03*
X205200000Y-135000000D03*
X204800000Y-106500000D03*
X192100000Y-84400000D03*
X199900000Y-70000000D03*
X162100000Y-85700000D03*
X215100000Y-90600000D03*
X196600000Y-114300000D03*
X190800000Y-95924500D03*
X201200000Y-103100000D03*
X168800000Y-78300000D03*
X195500000Y-127700000D03*
%TO.N,GND*%
X197187701Y-92987701D03*
X208575500Y-128600000D03*
X182600000Y-87600000D03*
X189300000Y-114100000D03*
X189400000Y-95924500D03*
X159700000Y-69200000D03*
X171100000Y-81400000D03*
X169400000Y-73300000D03*
X215200000Y-126400000D03*
X159500000Y-86000000D03*
X169500000Y-69500000D03*
X185500000Y-61500000D03*
X178000000Y-65400000D03*
X173000000Y-92800000D03*
X216100000Y-97500000D03*
X216900000Y-110400000D03*
X155300000Y-79600000D03*
X220300000Y-92000000D03*
X190300000Y-134900000D03*
X192000000Y-61200000D03*
X210900000Y-119600000D03*
X226000000Y-93500000D03*
X185000000Y-134400000D03*
X190900000Y-84400000D03*
X223000000Y-137800000D03*
X179900000Y-118300000D03*
X216100000Y-95000000D03*
X195000000Y-61300000D03*
X213000000Y-106500000D03*
X196600000Y-119100000D03*
X220500000Y-145800000D03*
X195000000Y-114000000D03*
X162100000Y-90300000D03*
X160500000Y-96200000D03*
X217000000Y-102400000D03*
X185500000Y-79800000D03*
X163700000Y-79300000D03*
X180700000Y-95449500D03*
X173600000Y-73400000D03*
X189000000Y-61200000D03*
X211487701Y-124112299D03*
X222700000Y-124800000D03*
X185899500Y-118300000D03*
X195500000Y-132100000D03*
X199900000Y-68700000D03*
%TO.N,Net-(D1-K)*%
X157000000Y-77600000D03*
X157000000Y-75000000D03*
X159600000Y-78000000D03*
X159600000Y-75700000D03*
%TO.N,RESET*%
X185900000Y-111700000D03*
X187700000Y-99100000D03*
%TO.N,Net-(U2-VDDCORE)*%
X189000000Y-112500000D03*
X188500000Y-99900000D03*
%TO.N,+BATT*%
X177000000Y-66800000D03*
X177000000Y-72000000D03*
%TO.N,D8_NEOPIX*%
X203000000Y-108700000D03*
X203000000Y-98900000D03*
%TO.N,/VO-*%
X215400000Y-128200000D03*
X215400000Y-131900000D03*
%TO.N,/VO+*%
X216600000Y-128200000D03*
X216600000Y-135000000D03*
%TO.N,/SWDIO*%
X190700000Y-105800000D03*
X183900000Y-105800000D03*
X183000000Y-118800000D03*
X190700000Y-99150000D03*
%TO.N,/SWCLK*%
X198100000Y-124000000D03*
X183700000Y-124500000D03*
X181500000Y-124500000D03*
X189975500Y-100000000D03*
X189975500Y-103600000D03*
X198100000Y-105000000D03*
%TO.N,/Button_Signal*%
X207600000Y-104000000D03*
X206700000Y-92100000D03*
%TO.N,/Force_Signal*%
X208700000Y-103400000D03*
X208100000Y-91100000D03*
%TO.N,/CS_Card*%
X175800000Y-105000000D03*
X175800000Y-90800000D03*
%TO.N,/MOSI*%
X186800000Y-104200000D03*
X194900000Y-84000000D03*
X193900000Y-95400000D03*
X186924500Y-99993982D03*
%TO.N,/SCK*%
X186500000Y-82400000D03*
X222300000Y-88400000D03*
X197900000Y-88200000D03*
X185900000Y-89700000D03*
X174900000Y-103300000D03*
X222300000Y-81700000D03*
X197100000Y-82400000D03*
X174900000Y-89974500D03*
%TO.N,/MISO*%
X186200000Y-102500000D03*
X186200000Y-99100000D03*
%TO.N,/Card_Detect*%
X173900000Y-101700000D03*
X173900000Y-89300000D03*
%TO.N,D+*%
X170500000Y-94200000D03*
X164600000Y-72300000D03*
X164600000Y-82900000D03*
X170500000Y-83900000D03*
%TO.N,D-*%
X166206773Y-71445529D03*
X171500000Y-93900000D03*
X171500000Y-83500000D03*
X166300000Y-81800000D03*
%TO.N,unconnected-(J6-SBU1-PadA8)*%
X166800000Y-70200000D03*
X163870500Y-70200000D03*
%TO.N,PWM_Servo*%
X198600000Y-100500000D03*
X197800000Y-91700000D03*
%TO.N,/AMPL_GAIN_SEL*%
X209300000Y-127300000D03*
X210500000Y-141100000D03*
%TO.N,Net-(U2-VSW)*%
X189251000Y-99100000D03*
X189800000Y-111600000D03*
%TO.N,/I2S_LRCLK*%
X182884749Y-92260151D03*
X192600000Y-117300000D03*
X183100000Y-104924500D03*
X193200000Y-106300000D03*
%TO.N,/I2S_BCLK*%
X187500000Y-116400000D03*
X176613329Y-91474500D03*
X189000000Y-122636987D03*
X187500000Y-109800000D03*
X176700000Y-108200000D03*
%TO.N,/I2S_DOUT*%
X185400000Y-120100000D03*
X186000000Y-95300000D03*
%TO.N,/V_DIV*%
X178600000Y-80500000D03*
X192000000Y-101600000D03*
X192800000Y-99100000D03*
X179300000Y-101600000D03*
%TO.N,ESP_BLUE*%
X197400000Y-80100000D03*
X195100000Y-74000000D03*
%TO.N,ESP_RED*%
X196700000Y-72500000D03*
X198500000Y-80100000D03*
%TO.N,ESP_GREEN*%
X198500000Y-71800000D03*
X199600000Y-80100000D03*
%TO.N,JUMBO_LED*%
X201500000Y-120800000D03*
X199500000Y-92700000D03*
%TO.N,/SD_MODE*%
X205400000Y-140100000D03*
X197000000Y-140100000D03*
%TO.N,/ESP_Busy*%
X187900000Y-84400000D03*
X188800000Y-79500000D03*
%TO.N,/CS_Wifi*%
X186767811Y-90195892D03*
X228900000Y-84100000D03*
X197200000Y-81200000D03*
X199100000Y-87700000D03*
X221200000Y-87700000D03*
X187400000Y-81600000D03*
X221200000Y-83700000D03*
X228900000Y-96300000D03*
%TO.N,/I2S_DIN*%
X193900000Y-125300000D03*
X192300000Y-93300000D03*
%TO.N,/MISO_ESP*%
X227900000Y-74800000D03*
X227900000Y-95400000D03*
%TD*%
D21*
%TO.N,Net-(D1-K)*%
X157000000Y-77600000D02*
X157000000Y-75000000D01*
X159600000Y-78000000D02*
X159600000Y-75700000D01*
%TO.N,RESET*%
X186300000Y-111300000D02*
X186300000Y-105725305D01*
X185900000Y-111700000D02*
X186300000Y-111300000D01*
X186300000Y-105725305D02*
X187700000Y-104325305D01*
X187700000Y-104325305D02*
X187700000Y-99100000D01*
%TO.N,Net-(U2-VDDCORE)*%
X188500000Y-112000000D02*
X189000000Y-112500000D01*
X188500000Y-99900000D02*
X188500000Y-112000000D01*
%TO.N,+BATT*%
X177000000Y-66800000D02*
X177000000Y-72000000D01*
%TO.N,D8_NEOPIX*%
X203000000Y-98900000D02*
X203000000Y-108700000D01*
D22*
%TO.N,/VO-*%
X215400000Y-128200000D02*
X215400000Y-131900000D01*
%TO.N,/VO+*%
X216600000Y-128200000D02*
X216600000Y-135000000D01*
D21*
%TO.N,/SWDIO*%
X183000000Y-106700000D02*
X183900000Y-105800000D01*
X190700000Y-105800000D02*
X190700000Y-99300000D01*
X183000000Y-118800000D02*
X183000000Y-106700000D01*
%TO.N,/SWCLK*%
X189975500Y-100000000D02*
X189975500Y-103600000D01*
X198100000Y-124000000D02*
X198100000Y-105000000D01*
X181500000Y-124500000D02*
X183700000Y-124500000D01*
%TO.N,/Button_Signal*%
X207600000Y-104000000D02*
X206700000Y-103100000D01*
X206700000Y-103100000D02*
X206700000Y-92100000D01*
%TO.N,/Force_Signal*%
X208100000Y-102800000D02*
X208700000Y-103400000D01*
X208100000Y-91100000D02*
X208100000Y-102800000D01*
%TO.N,/CS_Card*%
X175800000Y-105000000D02*
X175800000Y-90800000D01*
%TO.N,/MOSI*%
X186925000Y-99994482D02*
X186925000Y-104075000D01*
X186925000Y-104075000D02*
X186800000Y-104200000D01*
X193900000Y-95400000D02*
X193900000Y-85000000D01*
X186924500Y-99993982D02*
X186925000Y-99994482D01*
X193900000Y-85000000D02*
X194900000Y-84000000D01*
%TO.N,/SCK*%
X197900000Y-88200000D02*
X197900000Y-83200000D01*
X222300000Y-81700000D02*
X222300000Y-88400000D01*
X197900000Y-83200000D02*
X197100000Y-82400000D01*
X186500000Y-82400000D02*
X186500000Y-89100000D01*
X174900000Y-103300000D02*
X174900000Y-89974500D01*
X186500000Y-89100000D02*
X185900000Y-89700000D01*
%TO.N,/MISO*%
X186200000Y-102500000D02*
X186200000Y-99100000D01*
%TO.N,/Card_Detect*%
X173900000Y-101700000D02*
X173900000Y-89300000D01*
D22*
%TO.N,D+*%
X164600000Y-82900000D02*
X164600000Y-72300000D01*
X170500000Y-94200000D02*
X170500000Y-83900000D01*
%TO.N,D-*%
X166300000Y-71538756D02*
X166206773Y-71445529D01*
X166300000Y-81800000D02*
X166300000Y-71538756D01*
X171500000Y-93900000D02*
X171500000Y-83500000D01*
D21*
%TO.N,unconnected-(J6-SBU1-PadA8)*%
X163870500Y-70200000D02*
X166800000Y-70200000D01*
%TO.N,PWM_Servo*%
X198600000Y-92500000D02*
X198600000Y-100500000D01*
X197800000Y-91700000D02*
X198600000Y-92500000D01*
%TO.N,/AMPL_GAIN_SEL*%
X209300000Y-139900000D02*
X210500000Y-141100000D01*
X209300000Y-127300000D02*
X209300000Y-139900000D01*
%TO.N,Net-(U2-VSW)*%
X189251000Y-99100000D02*
X189251000Y-111051000D01*
X189251000Y-111051000D02*
X189800000Y-111600000D01*
%TO.N,/I2S_LRCLK*%
X182884749Y-104709249D02*
X183100000Y-104924500D01*
X182884749Y-92260151D02*
X182884749Y-104709249D01*
X193200000Y-116700000D02*
X193200000Y-106300000D01*
X192600000Y-117300000D02*
X193200000Y-116700000D01*
%TO.N,/I2S_BCLK*%
X176700000Y-91561171D02*
X176700000Y-108200000D01*
X187500000Y-121136987D02*
X187500000Y-116400000D01*
X189000000Y-122636987D02*
X187500000Y-121136987D01*
X187500000Y-109800000D02*
X187500000Y-116400000D01*
X176613329Y-91474500D02*
X176700000Y-91561171D01*
%TO.N,/I2S_DOUT*%
X185175000Y-119875000D02*
X185400000Y-120100000D01*
X186000000Y-95300000D02*
X185175000Y-96125000D01*
X185175000Y-96125000D02*
X185175000Y-119875000D01*
%TO.N,/V_DIV*%
X192000000Y-101600000D02*
X192700000Y-101600000D01*
X192800000Y-101500000D02*
X192800000Y-99100000D01*
X192700000Y-101600000D02*
X192800000Y-101500000D01*
X178600000Y-80500000D02*
X178600000Y-100900000D01*
X178600000Y-100900000D02*
X179300000Y-101600000D01*
%TO.N,ESP_BLUE*%
X195100000Y-74000000D02*
X195100000Y-77800000D01*
X195100000Y-77800000D02*
X197400000Y-80100000D01*
%TO.N,ESP_RED*%
X196700000Y-78300000D02*
X196700000Y-72500000D01*
X198500000Y-80100000D02*
X196700000Y-78300000D01*
%TO.N,ESP_GREEN*%
X198500000Y-79000000D02*
X199600000Y-80100000D01*
X198500000Y-71800000D02*
X198500000Y-79000000D01*
%TO.N,JUMBO_LED*%
X199500000Y-92700000D02*
X199500000Y-118800000D01*
X199500000Y-118800000D02*
X201500000Y-120800000D01*
%TO.N,/SD_MODE*%
X197000000Y-140100000D02*
X205400000Y-140100000D01*
%TO.N,/ESP_Busy*%
X188800000Y-83500000D02*
X188800000Y-79500000D01*
X187900000Y-84400000D02*
X188800000Y-83500000D01*
%TO.N,/CS_Wifi*%
X187175000Y-89788703D02*
X186767811Y-90195892D01*
X199100000Y-87700000D02*
X199100000Y-83100000D01*
X228900000Y-96300000D02*
X228900000Y-84100000D01*
X187175000Y-84099695D02*
X187175000Y-89788703D01*
X187400000Y-81600000D02*
X187400000Y-83874695D01*
X199100000Y-83100000D02*
X197200000Y-81200000D01*
X221200000Y-83700000D02*
X221200000Y-87700000D01*
X187400000Y-83874695D02*
X187175000Y-84099695D01*
%TO.N,/I2S_DIN*%
X192900000Y-98174695D02*
X193925000Y-99199695D01*
X192300000Y-93300000D02*
X192900000Y-93900000D01*
X192900000Y-93900000D02*
X192900000Y-98174695D01*
X193925000Y-99199695D02*
X193925000Y-125275000D01*
X193925000Y-125275000D02*
X193900000Y-125300000D01*
%TO.N,/MISO_ESP*%
X227900000Y-95400000D02*
X227900000Y-74800000D01*
%TD*%
M02*
