%TF.GenerationSoftware,KiCad,Pcbnew,7.0.6*%
%TF.CreationDate,2023-11-17T16:50:28-08:00*%
%TF.ProjectId,Final_Project_4Layer,46696e61-6c5f-4507-926f-6a6563745f34,1.0*%
%TF.SameCoordinates,Original*%
%TF.FileFunction,Paste,Top*%
%TF.FilePolarity,Positive*%
%FSLAX46Y46*%
G04 Gerber Fmt 4.6, Leading zero omitted, Abs format (unit mm)*
G04 Created by KiCad (PCBNEW 7.0.6) date 2023-11-17 16:50:28*
%MOMM*%
%LPD*%
G01*
G04 APERTURE LIST*
G04 Aperture macros list*
%AMRoundRect*
0 Rectangle with rounded corners*
0 $1 Rounding radius*
0 $2 $3 $4 $5 $6 $7 $8 $9 X,Y pos of 4 corners*
0 Add a 4 corners polygon primitive as box body*
4,1,4,$2,$3,$4,$5,$6,$7,$8,$9,$2,$3,0*
0 Add four circle primitives for the rounded corners*
1,1,$1+$1,$2,$3*
1,1,$1+$1,$4,$5*
1,1,$1+$1,$6,$7*
1,1,$1+$1,$8,$9*
0 Add four rect primitives between the rounded corners*
20,1,$1+$1,$2,$3,$4,$5,0*
20,1,$1+$1,$4,$5,$6,$7,0*
20,1,$1+$1,$6,$7,$8,$9,0*
20,1,$1+$1,$8,$9,$2,$3,0*%
G04 Aperture macros list end*
%ADD10R,0.711200X0.762000*%
%ADD11R,0.762000X0.711200*%
%ADD12R,5.511800X0.990600*%
%ADD13R,3.098800X1.701800*%
%ADD14R,1.346200X0.812800*%
%ADD15R,0.812800X1.346200*%
%ADD16R,1.244600X0.863600*%
%ADD17R,0.863600X1.244600*%
%ADD18R,0.660400X2.768600*%
%ADD19R,0.300000X1.150000*%
%ADD20RoundRect,0.075000X0.662500X0.075000X-0.662500X0.075000X-0.662500X-0.075000X0.662500X-0.075000X0*%
%ADD21RoundRect,0.075000X0.075000X0.662500X-0.075000X0.662500X-0.075000X-0.662500X0.075000X-0.662500X0*%
%ADD22RoundRect,0.150000X-0.512500X-0.150000X0.512500X-0.150000X0.512500X0.150000X-0.512500X0.150000X0*%
%ADD23RoundRect,0.218750X-0.218750X-0.381250X0.218750X-0.381250X0.218750X0.381250X-0.218750X0.381250X0*%
%ADD24R,1.498600X0.889000*%
%ADD25R,0.889000X1.498600*%
%ADD26R,0.889000X0.889000*%
%ADD27RoundRect,0.150000X-0.587500X-0.150000X0.587500X-0.150000X0.587500X0.150000X-0.587500X0.150000X0*%
%ADD28RoundRect,0.130500X0.169500X0.130500X-0.169500X0.130500X-0.169500X-0.130500X0.169500X-0.130500X0*%
%ADD29R,1.500000X1.000000*%
%ADD30R,0.355600X0.660400*%
%ADD31R,0.812800X0.254000*%
%ADD32R,0.254000X0.812800*%
%ADD33R,1.244600X1.244600*%
%ADD34R,0.990600X0.889000*%
%ADD35R,1.560000X0.650000*%
%ADD36R,1.800000X1.000000*%
G04 APERTURE END LIST*
%TO.C,MK1*%
G36*
X190723300Y-115730000D02*
G01*
X190780000Y-115872600D01*
X190808900Y-116023300D01*
X190808900Y-116176700D01*
X190780000Y-116327400D01*
X190723300Y-116470000D01*
X190640900Y-116599400D01*
X190426100Y-116384700D01*
X190467800Y-116309300D01*
X190496300Y-116228000D01*
X190510700Y-116143100D01*
X190510700Y-116056900D01*
X190496300Y-115972000D01*
X190467800Y-115890700D01*
X190426100Y-115815300D01*
X190640900Y-115600600D01*
X190723300Y-115730000D01*
G37*
G36*
X190499400Y-116740900D02*
G01*
X190370000Y-116823300D01*
X190227400Y-116880000D01*
X190076700Y-116908900D01*
X189923300Y-116908900D01*
X189772600Y-116880000D01*
X189630000Y-116823300D01*
X189500600Y-116740900D01*
X189715300Y-116526100D01*
X189790700Y-116567800D01*
X189872000Y-116596300D01*
X189956900Y-116610700D01*
X190043100Y-116610700D01*
X190128000Y-116596300D01*
X190209300Y-116567800D01*
X190284700Y-116526100D01*
X190499400Y-116740900D01*
G37*
G36*
X190227400Y-115320000D02*
G01*
X190370000Y-115376700D01*
X190499400Y-115459100D01*
X190284700Y-115673900D01*
X190209300Y-115632200D01*
X190128000Y-115603700D01*
X190043100Y-115589300D01*
X189956900Y-115589300D01*
X189872000Y-115603700D01*
X189790700Y-115632200D01*
X189715300Y-115673900D01*
X189500600Y-115459100D01*
X189630000Y-115376700D01*
X189772600Y-115320000D01*
X189923300Y-115291100D01*
X190076700Y-115291100D01*
X190227400Y-115320000D01*
G37*
G36*
X189573900Y-115815300D02*
G01*
X189532200Y-115890700D01*
X189503700Y-115972000D01*
X189489300Y-116056900D01*
X189489300Y-116143100D01*
X189503700Y-116228000D01*
X189532200Y-116309300D01*
X189573900Y-116384700D01*
X189359100Y-116599400D01*
X189276700Y-116470000D01*
X189220000Y-116327400D01*
X189191100Y-116176700D01*
X189191100Y-116023300D01*
X189220000Y-115872600D01*
X189276700Y-115730000D01*
X189359100Y-115600600D01*
X189573900Y-115815300D01*
G37*
%TD*%
D10*
%TO.C,D6*%
X192000000Y-62365000D03*
X192000000Y-63914400D03*
%TD*%
D11*
%TO.C,D2*%
X173425300Y-65400000D03*
X174974700Y-65400000D03*
%TD*%
D12*
%TO.C,J11*%
X155650001Y-99399999D03*
X155650001Y-97399997D03*
D13*
X153400000Y-101799996D03*
X153400000Y-95000000D03*
%TD*%
D14*
%TO.C,R19*%
X193500000Y-136200000D03*
X193500000Y-138003400D03*
%TD*%
D15*
%TO.C,R10*%
X182196600Y-77000000D03*
X184000000Y-77000000D03*
%TD*%
D16*
%TO.C,C6*%
X173400000Y-78300000D03*
X173400000Y-80154200D03*
%TD*%
%TO.C,C11*%
X165000000Y-87100000D03*
X165000000Y-88954200D03*
%TD*%
D15*
%TO.C,R9*%
X175201700Y-62900000D03*
X173398300Y-62900000D03*
%TD*%
D16*
%TO.C,C12*%
X167900000Y-87100000D03*
X167900000Y-88954200D03*
%TD*%
D14*
%TO.C,R20*%
X190300000Y-138003400D03*
X190300000Y-136200000D03*
%TD*%
D17*
%TO.C,C20*%
X226200000Y-137800000D03*
X224345800Y-137800000D03*
%TD*%
D15*
%TO.C,R22*%
X208300000Y-135000000D03*
X206496600Y-135000000D03*
%TD*%
D16*
%TO.C,C13*%
X206725000Y-119554200D03*
X206725000Y-117700000D03*
%TD*%
D14*
%TO.C,R13*%
X197548100Y-66007800D03*
X197548100Y-67811200D03*
%TD*%
D16*
%TO.C,C17*%
X198000000Y-130854200D03*
X198000000Y-129000000D03*
%TD*%
D18*
%TO.C,J1*%
X182460000Y-128000000D03*
X183730000Y-128000000D03*
X185000000Y-128000000D03*
X186270000Y-128000000D03*
X187540000Y-128000000D03*
X182460000Y-132039996D03*
X183730000Y-132039996D03*
X185000000Y-132039996D03*
X186270000Y-132039996D03*
X187540000Y-132039996D03*
%TD*%
D16*
%TO.C,C10*%
X162100000Y-87100000D03*
X162100000Y-88954200D03*
%TD*%
D14*
%TO.C,R16*%
X191993400Y-69817800D03*
X191993400Y-68014400D03*
%TD*%
%TO.C,R23*%
X210456100Y-142744500D03*
X210456100Y-144547900D03*
%TD*%
D15*
%TO.C,R21*%
X217896600Y-120900000D03*
X219700000Y-120900000D03*
%TD*%
%TO.C,R14*%
X181001700Y-92700000D03*
X179198300Y-92700000D03*
%TD*%
D19*
%TO.C,J6*%
X168670000Y-67745000D03*
X167870000Y-67745000D03*
X166570000Y-67745000D03*
X165570000Y-67745000D03*
X165070000Y-67745000D03*
X164070000Y-67745000D03*
X162770000Y-67745000D03*
X161970000Y-67745000D03*
X162270000Y-67745000D03*
X163070000Y-67745000D03*
X163570000Y-67745000D03*
X164570000Y-67745000D03*
X166070000Y-67745000D03*
X167070000Y-67745000D03*
X167570000Y-67745000D03*
X168370000Y-67745000D03*
%TD*%
D20*
%TO.C,U2*%
X195662500Y-95750000D03*
X195662500Y-95250000D03*
X195662500Y-94750000D03*
X195662500Y-94250000D03*
X195662500Y-93750000D03*
X195662500Y-93250000D03*
X195662500Y-92750000D03*
X195662500Y-92250000D03*
X195662500Y-91750000D03*
X195662500Y-91250000D03*
X195662500Y-90750000D03*
X195662500Y-90250000D03*
X195662500Y-89750000D03*
X195662500Y-89250000D03*
X195662500Y-88750000D03*
X195662500Y-88250000D03*
D21*
X193750000Y-86337500D03*
X193250000Y-86337500D03*
X192750000Y-86337500D03*
X192250000Y-86337500D03*
X191750000Y-86337500D03*
X191250000Y-86337500D03*
X190750000Y-86337500D03*
X190250000Y-86337500D03*
X189750000Y-86337500D03*
X189250000Y-86337500D03*
X188750000Y-86337500D03*
X188250000Y-86337500D03*
X187750000Y-86337500D03*
X187250000Y-86337500D03*
X186750000Y-86337500D03*
X186250000Y-86337500D03*
D20*
X184337500Y-88250000D03*
X184337500Y-88750000D03*
X184337500Y-89250000D03*
X184337500Y-89750000D03*
X184337500Y-90250000D03*
X184337500Y-90750000D03*
X184337500Y-91250000D03*
X184337500Y-91750000D03*
X184337500Y-92250000D03*
X184337500Y-92750000D03*
X184337500Y-93250000D03*
X184337500Y-93750000D03*
X184337500Y-94250000D03*
X184337500Y-94750000D03*
X184337500Y-95250000D03*
X184337500Y-95750000D03*
D21*
X186250000Y-97662500D03*
X186750000Y-97662500D03*
X187250000Y-97662500D03*
X187750000Y-97662500D03*
X188250000Y-97662500D03*
X188750000Y-97662500D03*
X189250000Y-97662500D03*
X189750000Y-97662500D03*
X190250000Y-97662500D03*
X190750000Y-97662500D03*
X191250000Y-97662500D03*
X191750000Y-97662500D03*
X192250000Y-97662500D03*
X192750000Y-97662500D03*
X193250000Y-97662500D03*
X193750000Y-97662500D03*
%TD*%
D22*
%TO.C,U1*%
X165100000Y-78300000D03*
X165100000Y-79250000D03*
X165100000Y-80200000D03*
X167375000Y-80200000D03*
X167375000Y-78300000D03*
%TD*%
D23*
%TO.C,FB2*%
X218237500Y-135800000D03*
X220362500Y-135800000D03*
%TD*%
D15*
%TO.C,R11*%
X184000000Y-79800000D03*
X182196600Y-79800000D03*
%TD*%
D17*
%TO.C,C9*%
X214800000Y-95000000D03*
X212945800Y-95000000D03*
%TD*%
D24*
%TO.C,U4*%
X201499400Y-68680480D03*
X201499400Y-69950480D03*
X201499400Y-71220480D03*
X201499400Y-72490480D03*
X201499400Y-73760480D03*
X201499400Y-75030480D03*
X201499400Y-76300480D03*
X201499400Y-77570480D03*
X201499400Y-78840480D03*
X201499400Y-80110480D03*
X201499400Y-81380480D03*
X201499400Y-82650480D03*
X201499400Y-83920480D03*
X201499400Y-85190480D03*
D25*
X203264700Y-86440160D03*
X204534700Y-86440160D03*
X205804700Y-86440160D03*
X207074700Y-86440160D03*
X208344700Y-86440160D03*
X209614700Y-86440160D03*
X210884700Y-86440160D03*
X212154700Y-86440160D03*
X213424700Y-86440160D03*
X214694700Y-86440160D03*
X215964700Y-86440160D03*
X217234700Y-86440160D03*
D24*
X219000000Y-85190480D03*
X219000000Y-83920480D03*
X219000000Y-82650480D03*
X219000000Y-81380480D03*
X219000000Y-80110480D03*
X219000000Y-78840480D03*
X219000000Y-77570480D03*
X219000000Y-76300480D03*
X219000000Y-75030480D03*
X219000000Y-73760480D03*
X219000000Y-72490480D03*
X219000000Y-71220480D03*
X219000000Y-69950480D03*
X219000000Y-68680480D03*
D26*
X208748560Y-76399540D03*
X208748560Y-75000000D03*
X207349020Y-75000000D03*
X207349020Y-76399540D03*
X207349020Y-77799080D03*
X208748560Y-77799080D03*
X210148100Y-77799080D03*
X210148100Y-76399540D03*
X210148100Y-75000000D03*
%TD*%
D12*
%TO.C,J4*%
X155650001Y-88000000D03*
X155650001Y-85999998D03*
D13*
X153400000Y-90399997D03*
X153400000Y-83600001D03*
%TD*%
D17*
%TO.C,C3*%
X152145800Y-79600000D03*
X154000000Y-79600000D03*
%TD*%
D27*
%TO.C,Q1*%
X152125000Y-74150000D03*
X152125000Y-76050000D03*
X154000000Y-75100000D03*
%TD*%
D23*
%TO.C,L1*%
X206700000Y-114300000D03*
X208825000Y-114300000D03*
%TD*%
D16*
%TO.C,C5*%
X171075000Y-78300000D03*
X171075000Y-80154200D03*
%TD*%
D15*
%TO.C,R6*%
X184000000Y-113500000D03*
X185803400Y-113500000D03*
%TD*%
D16*
%TO.C,C21*%
X202800000Y-128972900D03*
X202800000Y-130827100D03*
%TD*%
D15*
%TO.C,R7*%
X188198300Y-121000000D03*
X190001700Y-121000000D03*
%TD*%
D14*
%TO.C,R12*%
X185500000Y-62700000D03*
X185500000Y-64503400D03*
%TD*%
D28*
%TO.C,MK1*%
X190900000Y-118174000D03*
X190900000Y-117352000D03*
X189100000Y-117352000D03*
X189100000Y-118174000D03*
X190000000Y-118174000D03*
%TD*%
D29*
%TO.C,D4*%
X211300000Y-109700000D03*
X211300000Y-106500000D03*
X206400000Y-106500000D03*
X206400000Y-109700000D03*
%TD*%
D30*
%TO.C,D1*%
X161200000Y-74938400D03*
X161200000Y-72500000D03*
%TD*%
D10*
%TO.C,D7*%
X195000000Y-62439700D03*
X195000000Y-63989100D03*
%TD*%
D15*
%TO.C,R8*%
X199901700Y-103101700D03*
X198098300Y-103101700D03*
%TD*%
D14*
%TO.C,R4*%
X193400000Y-114000000D03*
X193400000Y-115803400D03*
%TD*%
D23*
%TO.C,FB1*%
X218237500Y-133300000D03*
X220362500Y-133300000D03*
%TD*%
D17*
%TO.C,C7*%
X217000000Y-92000000D03*
X218854200Y-92000000D03*
%TD*%
D14*
%TO.C,R15*%
X188986800Y-69817800D03*
X188986800Y-68014400D03*
%TD*%
D15*
%TO.C,R1*%
X168103400Y-73300000D03*
X166300000Y-73300000D03*
%TD*%
%TO.C,R2*%
X218096600Y-110460000D03*
X219900000Y-110460000D03*
%TD*%
D31*
%TO.C,U6*%
X210752200Y-126349999D03*
X210752200Y-126850000D03*
X210752200Y-127350000D03*
X210752200Y-127850001D03*
D32*
X211449999Y-128547800D03*
X211950000Y-128547800D03*
X212450000Y-128547800D03*
X212950001Y-128547800D03*
D31*
X213647800Y-127850001D03*
X213647800Y-127350000D03*
X213647800Y-126850000D03*
X213647800Y-126349999D03*
D32*
X212950001Y-125652200D03*
X212450000Y-125652200D03*
X211950000Y-125652200D03*
X211449999Y-125652200D03*
D33*
X212200000Y-127100000D03*
%TD*%
D16*
%TO.C,C14*%
X208925000Y-119554200D03*
X208925000Y-117700000D03*
%TD*%
D17*
%TO.C,C8*%
X214772900Y-97500000D03*
X212918700Y-97500000D03*
%TD*%
D14*
%TO.C,R18*%
X201000000Y-138003400D03*
X201000000Y-136200000D03*
%TD*%
D17*
%TO.C,C15*%
X175090900Y-73378500D03*
X176945100Y-73378500D03*
%TD*%
%TO.C,C4*%
X183972900Y-116700000D03*
X185827100Y-116700000D03*
%TD*%
D34*
%TO.C,SW1*%
X179899998Y-112800000D03*
X181500000Y-112800000D03*
X179899998Y-116899996D03*
X181500000Y-116899996D03*
%TD*%
D16*
%TO.C,C1*%
X196572900Y-115772900D03*
X196572900Y-117627100D03*
%TD*%
D15*
%TO.C,R3*%
X218272800Y-102434900D03*
X220076200Y-102434900D03*
%TD*%
D14*
%TO.C,R17*%
X195000000Y-69817800D03*
X195000000Y-68014400D03*
%TD*%
D16*
%TO.C,C16*%
X195500000Y-130854200D03*
X195500000Y-129000000D03*
%TD*%
D10*
%TO.C,D5*%
X189000000Y-62365000D03*
X189000000Y-63914400D03*
%TD*%
D22*
%TO.C,U3*%
X179562500Y-64450000D03*
X179562500Y-65400000D03*
X179562500Y-66350000D03*
X181837500Y-66350000D03*
X181837500Y-64450000D03*
%TD*%
D16*
%TO.C,C2*%
X199400000Y-115800000D03*
X199400000Y-117654200D03*
%TD*%
D14*
%TO.C,R5*%
X161275000Y-80103400D03*
X161275000Y-78300000D03*
%TD*%
D35*
%TO.C,U5*%
X226000000Y-96900000D03*
X226000000Y-95950000D03*
X226000000Y-95000000D03*
X223300000Y-95000000D03*
X223300000Y-96900000D03*
%TD*%
D16*
%TO.C,C23*%
X160500000Y-99427100D03*
X160500000Y-97572900D03*
%TD*%
%TO.C,C22*%
X200400000Y-129000000D03*
X200400000Y-130854200D03*
%TD*%
%TO.C,C19*%
X205300000Y-128972900D03*
X205300000Y-130827100D03*
%TD*%
D17*
%TO.C,C18*%
X226000000Y-124800000D03*
X224145800Y-124800000D03*
%TD*%
D36*
%TO.C,Y1*%
X210000000Y-95000000D03*
X210000000Y-97500000D03*
%TD*%
D11*
%TO.C,D3*%
X174750600Y-92800000D03*
X176300000Y-92800000D03*
%TD*%
M02*
